<svg xmlns="http://www.w3.org/2000/svg" xmlns:xlink="http://www.w3.org/1999/xlink" width="1991" height="1266.052" viewBox="0 0 1991 1266.052">
  <defs>
    <linearGradient id="linear-gradient" x1="0.5" y1="1" x2="0.5" gradientUnits="objectBoundingBox">
      <stop offset="0" stop-color="#7e4393"/>
      <stop offset="1" stop-color="#e94e1b"/>
    </linearGradient>
  </defs>
  <g id="Groupe_1901" data-name="Groupe 1901" transform="translate(36 20)">
    <path id="Tracé_1774" data-name="Tracé 1774" d="M1954,1184.607s-288.179,140.182-436.333,61.437c-141-74.943,29.014-261.069-137.333-364.106C1201.333,771.064,839,1163.231,655,1042.09c-201.411-132.6-184.362-331.16-405.333-335.361C33.667,702.623-37,834.532-37,834.532V4H1954Z" transform="translate(1 -24)" fill="#b1343c" opacity="0.5"/>
    <path id="Tracé_1775" data-name="Tracé 1775" d="M1954,1191s-246.333,51.511-376.333-10.489c-122.122-58.243-75.866-154.329-245.333-249.333-132-74-357.333,208.667-541.333,90.667-201.411-129.166-248-234-492-242C83,775.844-37,872-37,872V-17H1954Z" transform="translate(1 8.823)" opacity="0.85" fill="url(#linear-gradient)"/>
    <path id="Tracé_1776" data-name="Tracé 1776" d="M494.917,1225.784c-8.276,46.451-142.5,74.78-171.6,28.9C297.108,1213.361,357.8,1121,398.91,1121,446.086,1121,500.232,1195.957,494.917,1225.784Z" transform="matrix(-0.105, -0.995, 0.995, -0.105, -821.656, 1465.777)" fill="#e13611" opacity="0.4"/>
    <path id="Tracé_1777" data-name="Tracé 1777" d="M429.527,1186.4c-5.235,28.993-90.135,46.675-108.545,18.037C304.4,1178.649,342.8,1121,368.8,1121,398.639,1121,432.888,1167.786,429.527,1186.4Z" transform="matrix(0.996, -0.087, 0.087, 0.996, 756.335, -73.583)" fill="#e13611" opacity="0.4"/>
  </g>
</svg>
