<svg xmlns="http://www.w3.org/2000/svg" xmlns:xlink="http://www.w3.org/1999/xlink" width="514.206" height="455.143" viewBox="0 0 514.206 455.143">
  <defs>
    <linearGradient id="linear-gradient" y1="0.5" x2="1" y2="0.5" gradientUnits="objectBoundingBox">
      <stop offset="0" stop-color="#3d3d61"/>
      <stop offset="1" stop-color="#7e7fa5"/>
    </linearGradient>
    <linearGradient id="linear-gradient-2" y1="0.5" x2="1" y2="0.5" gradientUnits="objectBoundingBox">
      <stop offset="0" stop-color="#e21f71"/>
      <stop offset="1" stop-color="#f63385"/>
    </linearGradient>
  </defs>
  <g id="Groupe_1869" data-name="Groupe 1869" transform="translate(-1169.792 -193.633)">
    <path id="Tracé_1778" data-name="Tracé 1778" d="M-395.883,1184.345c-14.318,131.884-378.056,235.26-466.367,111.611-79.529-111.352,70.519-381.443,183.494-388.745C-549.1,898.831-386.688,1099.659-395.883,1184.345Z" transform="translate(2079.508 -702.654)" fill="#fff" opacity="0.2"/>
    <g id="Groupe_1868" data-name="Groupe 1868" transform="translate(1169.792 193.633)">
      <path id="Tracé_3332" data-name="Tracé 3332" d="M2705.1,1060.973c3.992-1.242,13.984-7.277,15.641-8.755s8.665-11.956,7.3-12.142-4.273,3.149-4.273,3.149,3.641-6.4,2.572-7.594-4.512,7.008-4.512,7.008,1.385-6.7.48-7.717-2.685,2.148-2.6,6.132-6.035,7.206-7.786,7.941-5.544-.022-3.906-2.312-.239-7.571-1.5-6.446-1.227,6.562-3.12,8.251-6.643,4.936-6.549,9.488c.062,2.851.77,22.36-2.054,35.057,3.817,1.861,9.764,1.326,13.766,2.505C2706.733,1078.624,2702.781,1061.7,2705.1,1060.973Z" transform="translate(-2406.554 -938.059)" fill="#9c5222"/>
      <g id="Groupe_1863" data-name="Groupe 1863" transform="translate(0 107.308)">
        <g id="Groupe_1861" data-name="Groupe 1861">
          <path id="Tracé_3333" data-name="Tracé 3333" d="M2615.088,1252.928c2.186,2.284,6.156,3.734,10.647,3.571s8.348-1.894,10.365-4.329c-2.186-2.282-6.157-3.733-10.65-3.57S2617.1,1250.494,2615.088,1252.928Z" transform="translate(-2400.026 -1062.884)" fill="#b5a4e2"/>
          <g id="Groupe_1860" data-name="Groupe 1860">
            <path id="Tracé_3334" data-name="Tracé 3334" d="M2416.7,1149.693a214.5,214.5,0,0,1,25.423,16.855,285.609,285.609,0,0,1,23.258,19.757,288.081,288.081,0,0,1,39.788,46.269,285.184,285.184,0,0,1,29.16,53.725,297.058,297.058,0,0,1,16.874,58.86l-4.321.723a293.108,293.108,0,0,0-15.747-58.307,282.178,282.178,0,0,0-28.029-53.6,286.051,286.051,0,0,0-38.8-46.551,284.157,284.157,0,0,0-22.844-20.024,213.78,213.78,0,0,0-25.048-17.172Z" transform="translate(-2383.753 -1054.784)" fill="#b5a4e2"/>
            <path id="Tracé_3335" data-name="Tracé 3335" d="M2380.839,1124.578c.476,6.782,4.989,14.3,12.5,19.586s16.114,7,22.659,5.155c-.478-6.784-4.991-14.3-12.5-19.586S2387.384,1122.736,2380.839,1124.578Z" transform="translate(-2380.839 -1052.668)" fill="#b5a4e2"/>
            <path id="Tracé_3336" data-name="Tracé 3336" d="M2435.27,1118.379c-5.018,4.589-8.1,12.794-7.576,21.967s4.53,16.972,10.04,20.956c5.017-4.589,8.1-12.8,7.576-21.967S2440.78,1122.363,2435.27,1118.379Z" transform="translate(-2384.672 -1052.219)" fill="#b5a4e2"/>
            <path id="Tracé_3337" data-name="Tracé 3337" d="M2518.138,1046.316c5.823,3.51,10.463,10.948,11.753,20.044s-1.1,17.532-5.716,22.524c-5.823-3.511-10.464-10.948-11.754-20.045S2513.52,1051.308,2518.138,1046.316Z" transform="translate(-2391.588 -1046.316)" fill="#b5a4e2"/>
            <path id="Tracé_3338" data-name="Tracé 3338" d="M2553.989,1080.459c.711,5.263-1.546,11.729-6.453,16.967s-11.213,7.911-16.512,7.541c-.711-5.263,1.546-11.729,6.454-16.966S2548.689,1080.09,2553.989,1080.459Z" transform="translate(-2393.13 -1049.11)" fill="#b5a4e2"/>
            <path id="Tracé_3339" data-name="Tracé 3339" d="M2527.682,1106.839c-4.459,2.886-11.271,3.6-18.1,1.385s-11.932-6.778-13.853-11.73c4.46-2.886,11.271-3.6,18.1-1.384S2525.76,1101.886,2527.682,1106.839Z" transform="translate(-2390.25 -1050.206)" fill="#b5a4e2"/>
            <path id="Tracé_3340" data-name="Tracé 3340" d="M2534.374,1129.646c-4.46,2.885-11.272,3.6-18.1,1.384s-11.932-6.777-13.854-11.731c4.459-2.885,11.271-3.594,18.1-1.384S2532.452,1124.694,2534.374,1129.646Z" transform="translate(-2390.798 -1052.074)" fill="#b5a4e2"/>
            <path id="Tracé_3341" data-name="Tracé 3341" d="M2541.969,1155.474c-4.459,2.886-11.271,3.6-18.1,1.385s-11.931-6.778-13.853-11.73c4.459-2.885,11.27-3.594,18.1-1.384S2540.048,1150.522,2541.969,1155.474Z" transform="translate(-2391.42 -1054.19)" fill="#b5a4e2"/>
            <path id="Tracé_3342" data-name="Tracé 3342" d="M2547.064,1178.932c-4.46,2.885-11.271,3.6-18.1,1.384s-11.932-6.777-13.855-11.73c4.461-2.885,11.272-3.594,18.1-1.384S2545.142,1173.979,2547.064,1178.932Z" transform="translate(-2391.837 -1056.111)" fill="#b5a4e2"/>
            <path id="Tracé_3343" data-name="Tracé 3343" d="M2551.191,1178.584c5.05,1.649,11.818.592,17.852-3.291s9.8-9.605,10.392-14.884c-5.05-1.648-11.816-.592-17.852,3.293S2551.783,1173.305,2551.191,1178.584Z" transform="translate(-2394.792 -1055.6)" fill="#b5a4e2"/>
            <path id="Tracé_3344" data-name="Tracé 3344" d="M2560.807,1102.776c.713,5.263-1.544,11.729-6.452,16.967s-11.213,7.91-16.512,7.541c-.713-5.263,1.545-11.729,6.453-16.967S2555.508,1102.407,2560.807,1102.776Z" transform="translate(-2393.688 -1050.938)" fill="#b5a4e2"/>
            <path id="Tracé_3345" data-name="Tracé 3345" d="M2568.253,1129.1c.711,5.264-1.546,11.729-6.454,16.966s-11.212,7.91-16.511,7.542c-.713-5.264,1.544-11.729,6.452-16.967S2562.953,1128.726,2568.253,1129.1Z" transform="translate(-2394.298 -1053.094)" fill="#b5a4e2"/>
            <path id="Tracé_3346" data-name="Tracé 3346" d="M2467.24,1134.711c-6.058,3.087-11.215,10.176-13.151,19.158s-.151,17.565,4.1,22.871c6.059-3.086,11.216-10.175,13.152-19.156S2471.491,1140.018,2467.24,1134.711Z" transform="translate(-2386.775 -1053.556)" fill="#b5a4e2"/>
            <path id="Tracé_3347" data-name="Tracé 3347" d="M2489.186,1154.9c-6.058,3.088-11.217,10.176-13.152,19.158s-.152,17.565,4.1,22.872c6.059-3.088,11.216-10.175,13.152-19.157S2493.437,1160.208,2489.186,1154.9Z" transform="translate(-2388.573 -1055.21)" fill="#b5a4e2"/>
            <path id="Tracé_3348" data-name="Tracé 3348" d="M2513.8,1175.653c-6.646,1.434-13.445,6.966-17.613,15.154s-4.642,16.942-1.891,23.16c6.647-1.434,13.447-6.966,17.615-15.154S2516.55,1181.871,2513.8,1175.653Z" transform="translate(-2389.991 -1056.91)" fill="#b5a4e2"/>
            <path id="Tracé_3349" data-name="Tracé 3349" d="M2531.19,1201.633c-6.067-.258-13.191,2.992-18.636,9.13s-7.828,13.6-6.85,19.59c6.067.257,13.19-2.993,18.636-9.13S2532.168,1207.626,2531.19,1201.633Z" transform="translate(-2391.049 -1059.037)" fill="#b5a4e2"/>
            <path id="Tracé_3350" data-name="Tracé 3350" d="M2544.1,1217.968c-6.068-.258-13.192,2.992-18.637,9.129s-7.827,13.6-6.85,19.591c6.066.257,13.19-2.993,18.636-9.129S2545.078,1223.96,2544.1,1217.968Z" transform="translate(-2392.107 -1060.375)" fill="#b5a4e2"/>
            <path id="Tracé_3351" data-name="Tracé 3351" d="M2551.8,1242.06c-5.2-.221-11.306,2.564-15.976,7.826s-6.708,11.653-5.87,16.792c5.2.22,11.305-2.565,15.974-7.826S2552.639,1247.2,2551.8,1242.06Z" transform="translate(-2393.038 -1062.348)" fill="#b5a4e2"/>
            <path id="Tracé_3352" data-name="Tracé 3352" d="M2558.617,1267.029c-3.785-2.139-9.41-2.392-14.925-.264s-9.513,6.091-10.882,10.217c3.785,2.138,9.409,2.392,14.924.265S2557.249,1271.155,2558.617,1267.029Z" transform="translate(-2393.287 -1064.252)" fill="#b5a4e2"/>
            <path id="Tracé_3353" data-name="Tracé 3353" d="M2561.834,1287.533c-2.328-2.593-6.535-4.222-11.267-4.018s-8.782,2.192-10.877,4.975c2.329,2.593,6.535,4.222,11.266,4.018S2559.739,1290.316,2561.834,1287.533Z" transform="translate(-2393.85 -1065.743)" fill="#b5a4e2"/>
            <path id="Tracé_3354" data-name="Tracé 3354" d="M2394.444,1178.119c5.78,3.581,14.517,4.314,23.2,1.311s15.1-8.978,17.431-15.364c-5.78-3.581-14.516-4.315-23.2-1.311S2396.778,1171.733,2394.444,1178.119Z" transform="translate(-2381.953 -1055.7)" fill="#b5a4e2"/>
            <path id="Tracé_3355" data-name="Tracé 3355" d="M2414.419,1194.559c5.781,3.579,14.516,4.314,23.2,1.31s15.1-8.979,17.432-15.365c-5.78-3.579-14.517-4.313-23.2-1.31S2416.753,1188.173,2414.419,1194.559Z" transform="translate(-2383.59 -1057.047)" fill="#b5a4e2"/>
            <path id="Tracé_3356" data-name="Tracé 3356" d="M2435.713,1214.827c5.781,3.58,14.517,4.315,23.2,1.311s15.1-8.978,17.432-15.365c-5.781-3.58-14.518-4.314-23.2-1.31S2438.047,1208.441,2435.713,1214.827Z" transform="translate(-2385.334 -1058.707)" fill="#b5a4e2"/>
            <path id="Tracé_3357" data-name="Tracé 3357" d="M2459.746,1228.6c4.7,2.91,11.806,3.508,18.869,1.065s12.28-7.3,14.176-12.5c-4.7-2.91-11.806-3.509-18.868-1.066S2461.645,1223.4,2459.746,1228.6Z" transform="translate(-2387.302 -1060.098)" fill="#b5a4e2"/>
            <path id="Tracé_3358" data-name="Tracé 3358" d="M2477.743,1241.7c3.845,2.484,9.615,3.056,15.32,1.082s9.888-5.988,11.375-10.317c-3.844-2.485-9.615-3.057-15.319-1.084S2479.23,1237.373,2477.743,1241.7Z" transform="translate(-2388.776 -1061.378)" fill="#b5a4e2"/>
            <path id="Tracé_3359" data-name="Tracé 3359" d="M2488.5,1258.26c3.844,2.484,9.614,3.056,15.319,1.083s9.888-5.989,11.375-10.317c-3.844-2.484-9.614-3.057-15.318-1.083S2489.982,1253.93,2488.5,1258.26Z" transform="translate(-2389.657 -1062.734)" fill="#b5a4e2"/>
            <path id="Tracé_3360" data-name="Tracé 3360" d="M2500.281,1273.6c3.115,2.653,8.335,3.934,13.935,3.026s10.149-3.77,12.267-7.271c-3.114-2.652-8.336-3.932-13.935-3.025S2502.4,1270.1,2500.281,1273.6Z" transform="translate(-2390.623 -1064.313)" fill="#b5a4e2"/>
            <path id="Tracé_3361" data-name="Tracé 3361" d="M2511.67,1291.934c3.509,1,8.173.1,12.3-2.72s6.663-6.835,7.011-10.466c-3.509-1-8.174-.1-12.3,2.72S2512.018,1288.3,2511.67,1291.934Z" transform="translate(-2391.555 -1065.322)" fill="#b5a4e2"/>
            <path id="Tracé_3362" data-name="Tracé 3362" d="M2524.352,1303.281c2.779.252,6.156-1.088,8.858-3.792s4.036-6.084,3.783-8.862c-2.779-.252-6.157,1.088-8.858,3.792S2524.1,1300.5,2524.352,1303.281Z" transform="translate(-2392.592 -1066.325)" fill="#b5a4e2"/>
            <path id="Tracé_3363" data-name="Tracé 3363" d="M2532.765,1306.67a7.243,7.243,0,1,0,2.1-5.631A6.753,6.753,0,0,0,2532.765,1306.67Z" transform="translate(-2393.278 -1067.003)" fill="#b5a4e2"/>
            <path id="Tracé_3364" data-name="Tracé 3364" d="M2535.476,1312.242a7.246,7.246,0,1,0,2.1-5.63A6.763,6.763,0,0,0,2535.476,1312.242Z" transform="translate(-2393.5 -1067.459)" fill="#b5a4e2"/>
            <path id="Tracé_3365" data-name="Tracé 3365" d="M2556.986,1333.412A382.523,382.523,0,0,0,2561,1271.7c-.083-10.307-.65-20.6-1.467-30.867-.784-10.27-2.037-20.495-3.467-30.685a566.115,566.115,0,0,0-12.163-60.479q-3.852-14.935-8.51-29.641c-3.117-9.8-6.449-19.519-10.291-29.083l-1.212.5c3.693,9.532,6.9,19.289,9.885,29.088s5.679,19.695,8.114,29.648a564.362,564.362,0,0,1,11.358,60.359c1.294,10.152,2.414,20.33,3.064,30.54.684,10.2,1.119,20.428,1.075,30.65a378.4,378.4,0,0,1-4.735,61Z" transform="translate(-2392.557 -1049.971)" fill="#b5a4e2"/>
            <g id="Groupe_1859" data-name="Groupe 1859" transform="translate(156.332 161.837)">
              <path id="Tracé_3366" data-name="Tracé 3366" d="M2585.64,1283.12c9.6-14.067,19.714-27.809,30.5-41l-.176-.151c-11.067,12.984-21.465,26.527-31.37,40.427a487.692,487.692,0,0,0-27.587,43.166q-3.033,5.423-5.894,10.955c.745.415,1.489.834,2.227,1.263q2.746-5.6,5.689-11.11A486.256,486.256,0,0,1,2585.64,1283.12Z" transform="translate(-2551.119 -1224.179)" fill="#b5a4e2"/>
              <path id="Tracé_3367" data-name="Tracé 3367" d="M2632.2,1222.592a13.908,13.908,0,1,0-1.3,11.484A12.994,12.994,0,0,0,2632.2,1222.592Z" transform="translate(-2556.807 -1222.592)" fill="#b5a4e2"/>
              <path id="Tracé_3368" data-name="Tracé 3368" d="M2604.715,1231.541c-1.444,2.811-1.519,7.037.1,11.23s4.517,7.271,7.475,8.381c1.446-2.81,1.52-7.037-.1-11.23S2607.674,1232.651,2604.715,1231.541Z" transform="translate(-2555.419 -1223.325)" fill="#b5a4e2"/>
              <path id="Tracé_3369" data-name="Tracé 3369" d="M2603.844,1264.756c2.4,2.051,6.5,3.094,10.954,2.481s8.114-2.726,9.875-5.351c-2.4-2.051-6.5-3.093-10.954-2.48S2605.6,1262.131,2603.844,1264.756Z" transform="translate(-2555.438 -1225.593)" fill="#b5a4e2"/>
              <path id="Tracé_3370" data-name="Tracé 3370" d="M2592.273,1279.693c2.406,2.052,6.5,3.094,10.955,2.481s8.114-2.725,9.875-5.351c-2.4-2.051-6.5-3.094-10.955-2.481S2594.034,1277.067,2592.273,1279.693Z" transform="translate(-2554.49 -1226.817)" fill="#b5a4e2"/>
              <path id="Tracé_3371" data-name="Tracé 3371" d="M2584.415,1291.59c2.4,2.051,6.5,3.094,10.954,2.481s8.115-2.726,9.875-5.351c-2.406-2.051-6.5-3.093-10.955-2.48S2586.175,1288.965,2584.415,1291.59Z" transform="translate(-2553.846 -1227.791)" fill="#b5a4e2"/>
              <path id="Tracé_3372" data-name="Tracé 3372" d="M2575.7,1304.723c2.4,2.051,6.5,3.094,10.955,2.481s8.115-2.726,9.874-5.35c-2.4-2.052-6.5-3.094-10.953-2.481S2577.46,1302.1,2575.7,1304.723Z" transform="translate(-2553.132 -1228.867)" fill="#b5a4e2"/>
              <path id="Tracé_3373" data-name="Tracé 3373" d="M2594.642,1244.355c-1.443,2.812-1.517,7.039.1,11.231s4.515,7.272,7.475,8.382c1.444-2.812,1.517-7.038-.1-11.231S2597.6,1245.466,2594.642,1244.355Z" transform="translate(-2554.594 -1224.375)" fill="#b5a4e2"/>
              <path id="Tracé_3374" data-name="Tracé 3374" d="M2585.015,1257.546c-1.443,2.811-1.517,7.037.1,11.23s4.516,7.271,7.475,8.381c1.444-2.81,1.518-7.037-.1-11.23S2587.976,1258.656,2585.015,1257.546Z" transform="translate(-2553.806 -1225.455)" fill="#b5a4e2"/>
              <path id="Tracé_3375" data-name="Tracé 3375" d="M2575.855,1270.843c-1.444,2.81-1.518,7.037.1,11.23s4.516,7.272,7.475,8.382c1.443-2.812,1.518-7.038-.1-11.231S2578.814,1271.953,2575.855,1270.843Z" transform="translate(-2553.055 -1226.544)" fill="#b5a4e2"/>
              <path id="Tracé_3376" data-name="Tracé 3376" d="M2566.977,1283.87c-1.444,2.812-1.518,7.037.1,11.231s4.515,7.27,7.475,8.38c1.444-2.81,1.517-7.037-.1-11.23S2569.936,1284.98,2566.977,1283.87Z" transform="translate(-2552.328 -1227.611)" fill="#b5a4e2"/>
            </g>
          </g>
        </g>
        <g id="Groupe_1862" data-name="Groupe 1862" transform="translate(135.86 253.31)">
          <rect id="Rectangle_279" data-name="Rectangle 279" width="45.592" height="42.526" transform="translate(10.529 8.383)" fill="#da7ab2"/>
          <rect id="Rectangle_280" data-name="Rectangle 280" width="66.651" height="3.476" fill="#0c5769"/>
          <rect id="Rectangle_281" data-name="Rectangle 281" width="58.474" height="7.565" transform="translate(4.088 3.476)" fill="#0c7997"/>
        </g>
      </g>
      <path id="Tracé_3377" data-name="Tracé 3377" d="M2858.7,1388.488c0,7.646-86.162,13.843-192.451,13.843s-192.45-6.2-192.45-13.843,86.163-13.842,192.45-13.842S2858.7,1380.843,2858.7,1388.488Z" transform="translate(-2388.453 -965.901)" fill="#b8a0ba"/>
      <g id="Groupe_1866" data-name="Groupe 1866" transform="translate(273.469)">
        <g id="Groupe_1865" data-name="Groupe 1865" transform="translate(15.456)">
          <g id="Groupe_1864" data-name="Groupe 1864" transform="translate(28.634 21.2)">
            <path id="Tracé_3378" data-name="Tracé 3378" d="M2770.946,1138.911a3.045,3.045,0,0,1-3.1-2.988v-33.847l67.694-102.1-106.875-41.687a2.951,2.951,0,0,1-1.71-3.891,3.141,3.141,0,0,1,4.034-1.65l113.792,44.383-70.738,106.695v32.1A3.045,3.045,0,0,1,2770.946,1138.911Z" transform="translate(-2726.729 -952.526)" fill="#8c5ba5"/>
          </g>
          <path id="Tracé_3379" data-name="Tracé 3379" d="M2771.929,969.9a6.823,6.823,0,1,1-6.818-6.575A6.7,6.7,0,0,1,2771.929,969.9Z" transform="translate(-2700.681 -932.21)" fill="#603e6b"/>
          <path id="Tracé_3380" data-name="Tracé 3380" d="M2765.326,974.356a4.256,4.256,0,1,1,4.411-4.254A4.34,4.34,0,0,1,2765.326,974.356Z" transform="translate(-2700.896 -932.417)" fill="#f7931e"/>
          <ellipse id="Ellipse_40" data-name="Ellipse 40" cx="9.324" cy="8.991" rx="9.324" ry="8.991" transform="translate(130.677 56.638)" fill="#603e6b"/>
          <path id="Tracé_3381" data-name="Tracé 3381" d="M2847.465,1006.521a6.156,6.156,0,1,1,6.38-6.152A6.276,6.276,0,0,1,2847.465,1006.521Z" transform="translate(-2707.462 -934.741)" fill="#f7931e"/>
          <path id="Tracé_3382" data-name="Tracé 3382" d="M2783.076,1112.992a8.992,8.992,0,1,1-8.986-8.665A8.829,8.829,0,0,1,2783.076,1112.992Z" transform="translate(-2701.239 -943.76)" fill="#603e6b"/>
          <path id="Tracé_3383" data-name="Tracé 3383" d="M2774.32,1119.384a6.174,6.174,0,1,1,6.4-6.169A6.294,6.294,0,0,1,2774.32,1119.384Z" transform="translate(-2701.47 -943.982)" fill="#f7931e"/>
          <path id="Rectangle_282" data-name="Rectangle 282" d="M9.676,0H26.2a9.676,9.676,0,0,1,9.676,9.676v5.981a0,0,0,0,1,0,0H0a0,0,0,0,1,0,0V9.676A9.676,9.676,0,0,1,9.676,0Z" transform="translate(54.361 199.458)" fill="#f7931e"/>
          <path id="Tracé_3384" data-name="Tracé 3384" d="M2723.517,980.738l-27.976-4.985,7.5-34.761a14.806,14.806,0,0,1,16.97-11.332h0a13.571,13.571,0,0,1,11.006,16.317Z" transform="translate(-2695.541 -929.434)" fill="#f7931e"/>
          <path id="Tracé_3385" data-name="Tracé 3385" d="M2712.85,942.769a14.8,14.8,0,0,1,11.912-11.339,14,14,0,0,0-4.755-1.77,14.806,14.806,0,0,0-16.97,11.332l-7.5,34.761,9.817,1.75Z" transform="translate(-2695.541 -929.434)" fill="#fbb03b"/>
        </g>
        <path id="Tracé_3386" data-name="Tracé 3386" d="M2723.207,1155.854v5.835h51.314v197.818h6.693V1155.854Z" transform="translate(-2682.351 -947.98)" fill="#082b57"/>
        <path id="Tracé_3387" data-name="Tracé 3387" d="M2786.418,1377.679H2685.332a6.661,6.661,0,0,1,6.661-6.661h94.425Z" transform="translate(-2679.249 -965.604)" fill="#082b57"/>
        <path id="Tracé_3388" data-name="Tracé 3388" d="M2704.912,1164.846l1.02,7.008h101.219v199.484h9.21V1165.969Z" transform="translate(-2680.853 -948.717)" fill="#2059a4"/>
        <path id="Tracé_3389" data-name="Tracé 3389" d="M2704.912,1164.846l.568,3.906,108.354,1.092v201.493h2.526V1165.969Z" transform="translate(-2680.853 -948.717)" fill="#13447a"/>
        <path id="Tracé_3390" data-name="Tracé 3390" d="M2774.3,1154.865l-95.6.908,25.08,8.605,110.429.773Z" transform="translate(-2678.706 -947.899)" fill="#eb777e"/>
        <path id="Tracé_3391" data-name="Tracé 3391" d="M2703.786,1171.117v-6.657l-25.08-8.605v4.234Z" transform="translate(-2678.706 -947.98)" fill="#082b57"/>
        <path id="Tracé_3392" data-name="Tracé 3392" d="M2748.129,1113.737c-5.054-2.357,5.145-15.426,5.145-15.426s7.765-17.089,0-9.323a11.344,11.344,0,0,1-7.068,3.387l-10.021,21.021c5.024,5.394,10.5,4.87,12.479,3.233l.768-1.339C2749.437,1114.721,2749.037,1114.161,2748.129,1113.737Z" transform="translate(-2683.414 -942.338)" fill="#fcc400"/>
        <path id="Tracé_3393" data-name="Tracé 3393" d="M2738.206,1155.172l23.873.576,28.67-49.984-17.32-25.338-7.7,21.014h0a12.732,12.732,0,0,1,7.645,19.015l-19.933,32.285S2737.947,1151.325,2738.206,1155.172Z" transform="translate(-2683.579 -941.802)" fill="#361e42"/>
        <path id="Tracé_3394" data-name="Tracé 3394" d="M2704.345,1151l-18.815,6.6,18.815,6.456,21.525-8.544Z" transform="translate(-2679.265 -947.583)" fill="#2d1e66"/>
        <path id="Tracé_3395" data-name="Tracé 3395" d="M2727.457,1163.287v-7.366l-22.545,8.194Z" transform="translate(-2680.853 -947.986)" fill="#2d1e66"/>
        <path id="Tracé_3396" data-name="Tracé 3396" d="M2809.987,1011.533l-73.268,124.016-16.667-4.712,59.186-116.7Z" transform="translate(-2682.093 -936.159)" fill="url(#linear-gradient)"/>
        <path id="Tracé_3397" data-name="Tracé 3397" d="M2781.419,1016.81l21.485-2.441-65.722,114.888-11.479-1.622Z" transform="translate(-2682.556 -936.391)" fill="#316e63"/>
        <path id="Tracé_3398" data-name="Tracé 3398" d="M2789.743,1043.407c-5.264-.857-8.285-3-4.957-8.054,6.59-10,11.389-12.706,7.041-19.2l-7.041.8-17.972,35.749c.055,11.284,3.023,3.772,5.372,12.424.569,2.1.271,5.661-.51,9.86Z" transform="translate(-2685.923 -936.538)" fill="#fd5e5a"/>
        <path id="Tracé_3399" data-name="Tracé 3399" d="M2815.806,1021.214l-4.332-9.681-73.268,124.016,8.434,2.484Z" transform="translate(-2683.58 -936.159)" fill="#59316e"/>
        <path id="Tracé_3400" data-name="Tracé 3400" d="M2775.428,1140.288l1.882.692,3.834-10.43a6.226,6.226,0,0,1-1.721-1.125Z" transform="translate(-2686.628 -945.816)" fill="#fd5e5a"/>
        <rect id="Rectangle_283" data-name="Rectangle 283" width="4.504" height="22.474" transform="translate(85.548 171.48)" fill="#8dfdb0"/>
        <rect id="Rectangle_284" data-name="Rectangle 284" width="4.504" height="11.712" transform="translate(85.548 171.48)" fill="#13447a"/>
        <path id="Tracé_3401" data-name="Tracé 3401" d="M2772.407,1138.139l-2.951.541-4.462-24.322v-6.34l2.951,5.8Z" transform="translate(-2685.774 -944.062)" fill="#be1e2d"/>
        <rect id="Rectangle_285" data-name="Rectangle 285" width="13.481" height="24.414" transform="translate(81.749 191.091)" fill="#20c9ac"/>
        <rect id="Rectangle_286" data-name="Rectangle 286" width="1.178" height="12.664" transform="translate(87.506 176.031)" fill="#13447a"/>
        <path id="Tracé_3402" data-name="Tracé 3402" d="M2783.1,1119.423l-.226.616c-3.97-1.671-1.941,5.311-2.61,5.692-.365.386-.442.159-.354.284a.456.456,0,0,0-.678.61,1,1,0,0,0,1.14.217l-.648,1.765a6.226,6.226,0,0,0,1.721,1.125l3.538-9.616Zm-.776.79a1.577,1.577,0,0,1,.479.018l-1.364,3.7C2781.33,1122.215,2780.975,1120.35,2782.325,1120.213Z" transform="translate(-2686.93 -944.996)" fill="#5b1432"/>
      </g>
      <path id="Tracé_3403" data-name="Tracé 3403" d="M2615.144,1235.359s-16.629,13.481-17.909,18.509.108,17.448,2.54,19.881,51.441,3.594,61.931,0,13.3-14.6,11.768-23.3S2623.843,1230.754,2615.144,1235.359Z" transform="translate(-2398.524 -954.404)" fill="#229394"/>
      <path id="Tracé_3404" data-name="Tracé 3404" d="M2572.478,1223.2l3.369,39.4.34,5.373H2601.9l7.675-4.349v-7.164l-8.953,5.628-18.421-1.534-3.326-37.352Z" transform="translate(-2396.536 -953.496)" fill="#112f57"/>
      <path id="Tracé_3405" data-name="Tracé 3405" d="M2573.032,1264.93s9.21-10.458,9.689-9.211a6.87,6.87,0,0,1,0,3.262,5.122,5.122,0,0,1,1.632-.095c1.535,0,0,4.125,0,4.125s1.727-1.919,3.262-1.919,1.216,2.664,1.216,2.664-8.8,12.2-10.137,11.726-.48-2.878-.48-2.878-5.084,2.686-5.084,0,.671-3.166.671-3.166S2570.859,1270.078,2573.032,1264.93Z" transform="translate(-2396.516 -956.152)" fill="#4e6685"/>
      <rect id="Rectangle_287" data-name="Rectangle 287" width="10.446" height="104.381" transform="translate(226.213 315.749)" fill="#082b57"/>
      <rect id="Rectangle_288" data-name="Rectangle 288" width="31.212" height="3.324" transform="translate(213.222 412.392)" fill="#082b57"/>
      <rect id="Rectangle_289" data-name="Rectangle 289" width="87.661" height="7.088" transform="translate(186.767 415.498)" fill="#2059a4"/>
      <path id="Tracé_3406" data-name="Tracé 3406" d="M2743.751,1234.733c0-4.221-84.041-50.272-84.041-50.272l-24.859,29.165,84.34,28.782s-33.684,21.359-44.561,57.566c3.787,3.451,12.1,9.5,15.941,12.954C2710.693,1284.624,2743.751,1237.67,2743.751,1234.733Z" transform="translate(-2401.645 -950.323)" fill="#a7978a"/>
      <path id="Tracé_3407" data-name="Tracé 3407" d="M2684.191,1375.595l-6.908-29.164s1.619-2.255,4.35-6.076c-5.1-1.992-10.128-4.355-15.367-5.663-2.135,2.644-3.66,4.257-4.332,4.447-5.1,1.439-4.605,5.373-4.605,5.373l12.28,18.42,9.72,18.346s8.761,1.034,11.256-1.461S2684.191,1375.595,2684.191,1375.595Z" transform="translate(-2403.485 -962.629)" fill="#b2205d"/>
      <path id="Tracé_3408" data-name="Tracé 3408" d="M2693.21,1323.494c-3.843-3.452-8.1-6.6-11.893-10.049-5.7,8.173-10.783,15.208-14.253,19.507,5.239,1.307,10.265,3.671,15.367,5.663C2685.109,1334.87,2688.855,1329.622,2693.21,1323.494Z" transform="translate(-2404.283 -960.888)" fill="#753e1a"/>
      <path id="Tracé_3409" data-name="Tracé 3409" d="M2682.271,1348.121c-5.253-2.052-10.165-4.523-14.11-8.871-3.836,5.453-7.305,9.006-9.09,9.856-8.058,3.839-2.11,8.635,3.838,14.583s5.271,22.541,5.271,22.541,18.906,2.787,18.906-1.05-4.617-2.685-7.111-5.18-1.327-15.715-1.327-25.693C2678.648,1352.976,2679.993,1350.935,2682.271,1348.121Z" transform="translate(-2403.308 -963.002)" fill="url(#linear-gradient-2)"/>
      <path id="Tracé_3410" data-name="Tracé 3410" d="M2683.431,1345.184c3.989-4.926,10.864-12.235,18.569-22.366-5.382-7.065-11.036-13.782-17.747-19.417a98.719,98.719,0,0,1-14.932,32.912C2673.266,1340.661,2678.178,1343.132,2683.431,1345.184Z" transform="translate(-2404.468 -960.066)" fill="#9c5222"/>
      <path id="Tracé_3411" data-name="Tracé 3411" d="M2700.12,1326.724q1.49-1.88,3.035-3.906c-5.382-7.065-11.036-13.782-17.747-19.417-.567,2.4-1.235,4.74-1.98,7.02C2688.083,1314.258,2696.636,1320.537,2700.12,1326.724Z" transform="translate(-2405.624 -960.066)" fill="#753e1a"/>
      <path id="Tracé_3412" data-name="Tracé 3412" d="M2698.552,1313.35c20.894-27.472,48.925-62.534,46.495-68.366-3.838-9.21-96.705-57.18-96.705-57.18l-21.108,46.434,79.438,24.176c-7.6,2.651-21.517,18.422-30.311,35.288C2683.072,1299.336,2693.17,1306.285,2698.552,1313.35Z" transform="translate(-2401.021 -950.597)" fill="#dfc9b8"/>
      <path id="Tracé_3413" data-name="Tracé 3413" d="M2665.134,1195.617c33.023,19.675,76.568,43.608,81.351,50.71-.037.059.022-.009.008.13-1.087,8.719-25.819,39.737-44.837,67.533,7.446-8.835,48.156-56.632,48.421-67.678C2750.583,1236.877,2673.693,1199.609,2665.134,1195.617Z" transform="translate(-2404.125 -951.237)" fill="#ecdfd4"/>
      <path id="Tracé_3414" data-name="Tracé 3414" d="M2573.469,1138.5s-10.744,4.6-10.744,28.4,2.559,47.074,4.093,51.167,21.234,2.614,21.234,2.614l-6.4-53.269,4.6-31.851Z" transform="translate(-2395.737 -946.318)" fill="#20c9ac"/>
      <path id="Tracé_3415" data-name="Tracé 3415" d="M2599.775,1275.193c2.433,2.432,51.441,3.594,61.931,0s13.3-14.6,11.768-23.3c-10.233,18.164-76.239,3.414-76.239,3.414C2595.956,1260.34,2597.343,1272.76,2599.775,1275.193Z" transform="translate(-2398.524 -955.847)" fill="#20c9ac"/>
      <path id="Tracé_3416" data-name="Tracé 3416" d="M2686.836,1085.814c-3.018,6.983-6.686,26.188-8.229,26.188-5.451,0-36.912-35.471-53.585-23.851,0,0-3.736-2.943,25.6,28.81,11.212,12.135,27.464,24.538,36.212,20.846,11.615-4.9,14.185-28.142,17.472-45.916C2699.191,1091.195,2691.955,1086.656,2686.836,1085.814Z" transform="translate(-2400.827 -942.243)" fill="#992930"/>
      <path id="Tracé_3417" data-name="Tracé 3417" d="M2640.351,1080.911s-9.487-4.6-17.764-.55a16.553,16.553,0,0,0-8.045,8.229c-8.059,16.885-18.708,89.126-12.952,119.443s18.4,18.8,25.894,23.025,23.61-43.363,35.89-47.2,1.151-10.745-3.069-19.572-8.059-6.647-5.757-15.411S2653.93,1095.35,2640.351,1080.911Z" transform="translate(-2398.787 -941.66)" fill="#e6555e"/>
      <path id="Tracé_3418" data-name="Tracé 3418" d="M2587.361,1135.553s-5.372-.576-8.058,12.855-7.388,59.193,4.989,71.57c0,0,5.687,2.67,9.659-2.463a10.879,10.879,0,0,0,1.532-10.127c-2.045-6.076-5.754-18.784-5.052-29.277C2591.39,1163.758,2596.571,1134.209,2587.361,1135.553Z" transform="translate(-2396.837 -946.314)" fill="#229394"/>
      <g id="Groupe_1867" data-name="Groupe 1867" transform="translate(201.79 69.498)">
        <path id="Tracé_3419" data-name="Tracé 3419" d="M2616.779,1036.294c-1.042-14.848-14.839-11.624-15.349-6.257-.262,3.978,4.568,5.825,6.741,2.667,1.007-1.409.312-3.413-.987-3.762-1.606-.443-.876,1.46-1.923,1.363a.608.608,0,0,1-.551-.661c.247-2.676,4.195-2.571,4.906.6,1.056,4.242-5.661,7.355-8.325,2.618-3.856-6.677,10.24-12.838,14.562-2.011.64,1.639,1.394,5.508,1.013,5.525A.087.087,0,0,1,2616.779,1036.294Z" transform="translate(-2600.632 -1006.756)" fill="#40232f"/>
        <path id="Tracé_3420" data-name="Tracé 3420" d="M2619.991,1033.885s-11.9,2.169-11.9,10.613,1.828,4.629,3.741,10.663.136,11.185,8.164,11.185,6.636.522,10.64,2.959,11.9-1.654,12.758-10.356-13.828-8.1-13.828-14.451S2619.991,1033.885,2619.991,1033.885Z" transform="translate(-2601.243 -1007.488)" fill="#40232f"/>
        <path id="Tracé_3421" data-name="Tracé 3421" d="M2644.742,1054.97s-4.066,5.959-3.563,12.783c.272,3.693.972,8.333,2.08,11.035,1.16,2.833,4.293,5.215,1.484,6.354-1.718.7-20.135-7.459-20.135-7.459.32-1.957,8.567-31.685,8.567-31.685Z" transform="translate(-2602.596 -1008.48)" fill="#9c5222"/>
        <path id="Tracé_3422" data-name="Tracé 3422" d="M2645.3,1054.907l-11.837-9.674a62.3,62.3,0,0,1-2.054,9.108c2.717,4.108,6.067,7.694,10.54,9.237A24.077,24.077,0,0,1,2645.3,1054.907Z" transform="translate(-2603.153 -1008.417)" fill="#753e1a"/>
        <path id="Tracé_3423" data-name="Tracé 3423" d="M2653.132,1013.115a13.294,13.294,0,0,1,4.9,7.54c1.158,5.012-1.782,10.953-1.474,15.224s-6.078,25.225-16.2,21.173-12.479-19.921-12.729-23.392,5.672-15.528,11.283-18.779S2653.132,1013.115,2653.132,1013.115Z" transform="translate(-2602.843 -1005.759)" fill="#9c5222"/>
        <path id="Tracé_3424" data-name="Tracé 3424" d="M2651.146,1036.229a70.3,70.3,0,0,0,.976,8.587,5.05,5.05,0,0,1-3.017.506,4.7,4.7,0,0,0,3.5-.241A72.924,72.924,0,0,0,2651.146,1036.229Z" transform="translate(-2604.603 -1007.68)" fill="#510b5e"/>
        <path id="Tracé_3425" data-name="Tracé 3425" d="M2645.36,1031.362a9.922,9.922,0,0,0-4.325-1.819c-2.338-.275-5.565,2.444-5.565,2.444s3.539-2.042,5.1-1.8a8.914,8.914,0,0,1,3.079,1.282Z" transform="translate(-2603.486 -1007.13)" fill="#510b5e"/>
        <path id="Tracé_3426" data-name="Tracé 3426" d="M2652.365,1031.431a8.3,8.3,0,0,1,3.72-1.826c1.975-.28,4.548,2.417,4.548,2.417s-2.869-2.023-4.186-1.774a7.4,7.4,0,0,0-2.648,1.286Z" transform="translate(-2604.87 -1007.135)" fill="#510b5e"/>
        <path id="Tracé_3427" data-name="Tracé 3427" d="M2643.726,1050.466c5.027,1.888,6.9,1.756,8.635,1.374C2649.868,1053.851,2645.6,1052.685,2643.726,1050.466Z" transform="translate(-2604.162 -1008.846)" fill="#fff"/>
        <path id="Tracé_3428" data-name="Tracé 3428" d="M2644.367,1035.151a1.342,1.342,0,1,1-.927-1.8A1.433,1.433,0,0,1,2644.367,1035.151Z" transform="translate(-2604 -1007.441)" fill="#510b5e"/>
        <path id="Tracé_3429" data-name="Tracé 3429" d="M2638.025,1035.384c5.323-4.7,6.951-.816,8.559-.422-1.333-.025-2.728-1.593-4.214-1.327A21.49,21.49,0,0,0,2638.025,1035.384Z" transform="translate(-2603.695 -1007.422)" fill="#42004a"/>
        <path id="Tracé_3430" data-name="Tracé 3430" d="M2656.575,1035.793c-.189.819-.794,1.362-1.352,1.215s-.855-.932-.665-1.751.795-1.362,1.351-1.215S2656.765,1034.974,2656.575,1035.793Z" transform="translate(-2605.045 -1007.499)" fill="#510b5e"/>
        <path id="Tracé_3431" data-name="Tracé 3431" d="M2652.175,1036.026c4.3-4.5,5.777-.583,7.132-.14-1.114-.069-2.327-1.672-3.56-1.457A15.124,15.124,0,0,0,2652.175,1036.026Z" transform="translate(-2604.854 -1007.488)" fill="#42004a"/>
        <path id="Tracé_3432" data-name="Tracé 3432" d="M2643.508,1043.688c-.344,1.4-2.422,2.094-4.64,1.543s-3.738-2.132-3.392-3.535,2.423-2.1,4.641-1.545S2643.853,1042.284,2643.508,1043.688Z" transform="translate(-2603.482 -1007.985)" fill="#f74733" opacity="0.44"/>
        <path id="Tracé_3433" data-name="Tracé 3433" d="M2642.634,1005.5c-7.435-.646-15.528-.984-21,3.684-2.461,2.1-4.809,4.506-5.133,7.616-.6,5.8,2.062,11.866.088,17.5a11.938,11.938,0,0,0,6.523,15c3.342,1.42,6.072,1.888,7.888-1.118-.262-3.088-7.867-12.378-.212-19.627.49.354-.464,2.212.679,2.244,2.774.079,4.58-5.946,4.9-8.457,1.4-6.15,9.194-10.545,15.233-9.685.7.133,1.115.3,1.266.282C2652.914,1012.72,2651,1006.027,2642.634,1005.5Z" transform="translate(-2601.883 -1005.133)" fill="#552e5d"/>
        <path id="Tracé_3434" data-name="Tracé 3434" d="M2652.61,1009.171a14.766,14.766,0,0,1,9.85,3.38c4.348,3.783,3.714,17.384,1.046,20s8.159,7.2,2.121,7.214C2657.065,1039.79,2647.263,1010.155,2652.61,1009.171Z" transform="translate(-2604.765 -1005.462)" fill="#552e5d"/>
        <path id="Tracé_3435" data-name="Tracé 3435" d="M2654.393,1011.383c8.084.382,12.615,7.368,9.92,14.009a4,4,0,0,1-2.308,2.564l-.332-1.679c.445-.016,1.09-1.093,1.288-1.495C2665.831,1019.047,2662.038,1012.336,2654.393,1011.383Z" transform="translate(-2605.036 -1005.645)" fill="#6f1884"/>
        <path id="Tracé_3436" data-name="Tracé 3436" d="M2632.368,1031.5s-.475-4.306-3.9-3.1-1.992,11.67,1.03,10.645S2632.368,1031.5,2632.368,1031.5Z" transform="translate(-2602.75 -1007.021)" fill="#9c5222"/>
        <path id="Tracé_3437" data-name="Tracé 3437" d="M2631.757,1033.741s-.42-4.673-2.125-3.436-1.878,5.817-.1,6.1S2631.757,1033.741,2631.757,1033.741Z" transform="translate(-2602.897 -1007.177)" fill="#753e1a"/>
        <path id="Tracé_3438" data-name="Tracé 3438" d="M2612.765,1041.769a8.714,8.714,0,0,0-1.629,2.466c-1.966,4.528,3.621,5.141,4.731,5.8,2.654,1.618-.591,8.12,1.4,11.422a4.6,4.6,0,0,0,4.677,2.26,3.382,3.382,0,0,0,2.648-3.952,3.215,3.215,0,0,0-3.9-2.41c-2.3.734-.711,3.119-.195,2.682l.017-.015a.609.609,0,0,1,.858.072c.548.649-.486,1.371-1.229,1.192a2.557,2.557,0,0,1,.219-4.943,4.15,4.15,0,0,1,4.427,6.393c-2.027,2.847-6.262,2.146-8.046-.969-2.013-3.439,1.316-9.982-1.042-11.476-.982-.635-6.768-1.477-4.632-6.085A8.807,8.807,0,0,1,2612.765,1041.769Z" transform="translate(-2601.448 -1008.133)" fill="#301a23"/>
      </g>
      <path id="Tracé_3439" data-name="Tracé 3439" d="M2661.729,1165.5c-4.221-8.826-8.059-6.647-5.757-15.411.838-3.193.984-11.158.175-20.694-10.594-21.843-24.85-47.569-37-30.1,0,0-13.169,52.62,31.452,74.49,12.282,6.021,19.733,6.882,19.733,6.882l.041-.023C2670.834,1176.76,2664.639,1171.586,2661.729,1165.5Z" transform="translate(-2400.21 -942.875)" fill="#ad4047" opacity="0.46"/>
      <path id="Tracé_3440" data-name="Tracé 3440" d="M2721.975,1110.478l.746-1.129s7.652-3.177,9.472-1.357-5.109,3.5-5.109,3.5Z" transform="translate(-2408.781 -944.014)" fill="#753e1a"/>
      <path id="Tracé_3441" data-name="Tracé 3441" d="M2720.979,1095.042l17.205,34.943a.665.665,0,0,0,1.209-.552l-15.124-35.892a1.809,1.809,0,1,0-3.334,1.4C2720.949,1094.976,2720.965,1095.012,2720.979,1095.042Z" transform="translate(-2408.685 -942.785)"/>
      <path id="Tracé_3442" data-name="Tracé 3442" d="M2705.306,1127.256s7.121-7.122,8.251-10.513,5.991-6.442,7.8-7.233,14.582,2.712,13.677,5.991-1.017,2.939-.452,5.651,0,1.47,0,4.3-2.261,2.035-3.955,2.035-10.4.677-14.243,3.164a22.977,22.977,0,0,0-6.329,6.681Z" transform="translate(-2407.416 -944.175)" fill="#9c5222"/>
      <path id="Tracé_3443" data-name="Tracé 3443" d="M2701.023,1122.143c-5.694,5.989-24.669,19.378-27.781,19.378-6.065,0-29.722-68.392-48.675-55.5a11.536,11.536,0,0,0-4.83,8.07c-1.559,11.75-3.162,48.626,34.045,66.863,12.282,6.021,19.733,6.881,19.733,6.881s24.833-13.775,36.181-30.471C2707.256,1133.477,2704.469,1125.264,2701.023,1122.143Z" transform="translate(-2400.355 -942.128)" fill="#eb777e"/>
      <path id="Tracé_3444" data-name="Tracé 3444" d="M2673.6,1139.8c-.025,0-.05.009-.074.015-5.337-4.129-34.18-79.781-52.249-50.064,15.685-18.361,29.068,17.368,44.294,44.1,1.465,2.494,4.437,7.844,6.823,8.857,3.692,2.247,24.58-15.61,28.8-20.7C2694.541,1127.907,2674.74,1140.325,2673.6,1139.8Zm-.175.049c0-.01.017-.013.032-.013Z" transform="translate(-2400.533 -942.001)" fill="#f3adb2"/>
      <path id="Rectangle_290" data-name="Rectangle 290" d="M8.733,0H132.523a0,0,0,0,1,0,0V8.733a0,0,0,0,1,0,0H0a0,0,0,0,1,0,0v0A8.733,8.733,0,0,1,8.733,0Z" transform="translate(283.863 414.495)" fill="#2059a4"/>
    </g>
  </g>
</svg>
