<svg xmlns="http://www.w3.org/2000/svg" width="77.294" height="74" viewBox="0 0 77.294 74">
  <g id="Groupe_1857" data-name="Groupe 1857" transform="translate(-45.589 -521.671)">
    <path id="Tracé_3312" data-name="Tracé 3312" d="M87.648,548.67a.793.793,0,0,0,.253-1.033,2.92,2.92,0,0,0-1.731-.963.7.7,0,0,0-.519.095c-.027.009-.053.018-.075.028a.913.913,0,0,0-.513.5,3.585,3.585,0,0,0-.2.5,1.093,1.093,0,0,0,.212,1.17A2.218,2.218,0,0,0,87.648,548.67Z" transform="translate(-23.553 -15.011)" fill="#fff"/>
    <path id="Tracé_3313" data-name="Tracé 3313" d="M105.236,537.637c1.508.126,1.232-1.7.631-2.573.067-.194-.179-.354-.451-.287-.278.011-.6.19-.557.379C104.057,535.964,103.731,537.511,105.236,537.637Z" transform="translate(-35.202 -7.864)" fill="#fff"/>
    <path id="Tracé_3314" data-name="Tracé 3314" d="M139.452,526.86a2.548,2.548,0,0,0,.6-3.7c.048-.083.02-.161-.153-.2l-.036-.005a2.11,2.11,0,0,0-.339-.269c-.241-.15-.934.15-.766.382-1.121.616-.871,2.866.009,3.822C138.933,527.072,139.276,526.96,139.452,526.86Z" transform="translate(-55.523 -0.586)" fill="#fff"/>
    <path id="Tracé_3315" data-name="Tracé 3315" d="M154.618,525.871a1.741,1.741,0,0,0,1.538-1.732,2.37,2.37,0,0,0-1.506-2.459c-.21-.063-.895.232-.755.348C152.451,523.044,152.157,526.356,154.618,525.871Z" transform="translate(-64.403)" fill="#fff"/>
    <path id="Tracé_3316" data-name="Tracé 3316" d="M198.313,566.494a2.5,2.5,0,0,0,2.986-2.148c.04-.238-.228-.3-.481-.239a.462.462,0,0,0-.224-.025c-1.172.188-2.422.834-2.468,2.168A.234.234,0,0,0,198.313,566.494Z" transform="translate(-91.641 -25.476)" fill="#fff"/>
    <path id="Tracé_3317" data-name="Tracé 3317" d="M48.534,640.6c-.089.061-.1.13-.065.18a1.908,1.908,0,0,0-.734,1.563,1.675,1.675,0,0,0,2.42,1.546,2.267,2.267,0,0,0,1.058-2.823C50.826,639.757,49.445,639.965,48.534,640.6Z" transform="translate(-1.289 -71.15)" fill="#fff"/>
    <path id="Tracé_3318" data-name="Tracé 3318" d="M49.6,624c.577-.7-.336-1.062-.972-1.2-.005-.006-.007-.012-.017-.017a2.6,2.6,0,0,0-2.757.354.644.644,0,0,0-.174.844,2.2,2.2,0,0,0,1.347.729A2.766,2.766,0,0,0,49.6,624Z" transform="translate(0 -60.597)" fill="#fff"/>
    <path id="Tracé_3319" data-name="Tracé 3319" d="M58.879,571.859c.427-.29.33-.7-.011-1.013a3.508,3.508,0,0,0-.544-.4.252.252,0,0,0-.06-.026.163.163,0,0,0-.092-.126.669.669,0,0,0-.627.072c-.381.223-1.093.647-.987,1.19.078.4.637.511.965.557A2.011,2.011,0,0,0,58.879,571.859Z" transform="translate(-6.584 -29.182)" fill="#fff"/>
    <path id="Tracé_3320" data-name="Tracé 3320" d="M64.307,646.33a.913.913,0,0,0-.03-.517,2.148,2.148,0,0,0,.093-.318c.013-.063-.018-.1-.079-.116a4.406,4.406,0,0,0-.452-.112,1.382,1.382,0,0,0-.324-.162,2.73,2.73,0,0,0-1.915.2c-.1.032-.21.066-.318.1a2.756,2.756,0,0,0-1.816.893c-.5.38-.767.82-.5,1.281a1.341,1.341,0,0,0,1.35,1.246,4.4,4.4,0,0,0,2.279-.634A3.149,3.149,0,0,0,64.307,646.33Z" transform="translate(-7.974 -74.096)" fill="#fff"/>
    <path id="Tracé_3321" data-name="Tracé 3321" d="M72.772,656.894c-.039-.01-.079-.017-.118-.026-.034-.03-.066-.062-.1-.091a.568.568,0,0,0-.556.029,5.361,5.361,0,0,0-3.21,1.547c-.952.909-1.066,2.571.393,3.072,2.121.727,5.222-2.391,3.747-4.274C72.989,657.049,72.965,656.948,72.772,656.894Z" transform="translate(-13.509 -81.132)" fill="#fff"/>
    <path id="Tracé_3322" data-name="Tracé 3322" d="M211.015,675.861a.629.629,0,0,0-.464.247l0,0a.258.258,0,0,0-.022.04.58.58,0,0,0-.073.052c-.258.263-.683.707-.529,1.122a.452.452,0,0,0,.078.132c-.028.067-.055.134-.078.2-.244.76.546.863,1.1.673a2.232,2.232,0,0,0,1.467-1.591C212.595,675.916,211.6,675.82,211.015,675.861Z" transform="translate(-98.703 -92.629)" fill="#fff"/>
    <path id="Tracé_3323" data-name="Tracé 3323" d="M219.078,681.672c-.071-.146-.277-.159-.443-.127-.005-.008-.007-.016-.013-.025a.491.491,0,0,0-.6-.077c-.439.261-1.108.678-1.119,1.265a.658.658,0,0,0,.254.533c.006.04.006.077.015.117a.27.27,0,0,0,.186.18,1.819,1.819,0,0,0,1.829-.361.591.591,0,0,0,.11-.7A1.9,1.9,0,0,0,219.078,681.672Z" transform="translate(-102.921 -95.946)" fill="#fff"/>
    <path id="Tracé_3324" data-name="Tracé 3324" d="M196.108,667.368a.369.369,0,0,0-.208-.022c-1.208-.7-1.971-2.76-3.609-2.13-2.166.832-.19,3.2.717,4.161,1.129,1.2,2.968,2.068,4.561,1.271C199.456,669.7,197,667.86,196.108,667.368Z" transform="translate(-87.548 -86.168)" fill="#fff"/>
    <path id="Tracé_3325" data-name="Tracé 3325" d="M233.716,608.961a1.183,1.183,0,0,0-.368-.408.822.822,0,0,0-.84.222.523.523,0,0,0-.316-.059.433.433,0,0,0-.126,0,2.765,2.765,0,0,0-1.616.564.372.372,0,0,0-.032.513.586.586,0,0,0,.175.933,2.124,2.124,0,0,0,2.512-.149,1.441,1.441,0,0,0,.689-1.415C233.851,609.084,233.844,609.01,233.716,608.961Z" transform="translate(-110.945 -52.167)" fill="#fff"/>
    <path id="Tracé_3326" data-name="Tracé 3326" d="M124.737,595.757a1.09,1.09,0,0,0,.514.487l-.144.3.144-.3a2.758,2.758,0,0,0,1.935,0,1.09,1.09,0,0,0,.514-.487,2.652,2.652,0,0,0,.276-.83,7.654,7.654,0,0,0,.08-1.205v-7.175a7.3,7.3,0,0,0-.079-1.179,2.548,2.548,0,0,0-.274-.8,1.026,1.026,0,0,0-.507-.461,2.986,2.986,0,0,0-1.953,0,1.024,1.024,0,0,0-.507.461,2.537,2.537,0,0,0-.274.8,7.254,7.254,0,0,0-.079,1.179v7.175a7.609,7.609,0,0,0,.079,1.205A2.662,2.662,0,0,0,124.737,595.757Z" transform="translate(-47.337 -37.41)" fill="#fff"/>
    <path id="Tracé_3327" data-name="Tracé 3327" d="M124.709,571.088c-1.127-.345-3.171.658-4.083-.053-.86-.671-1.133-2.513-1.095-3.506.048-1.244,1.6-1.614,2.535-1.931.064-.022.341-.164.272-.278-1.126-1.889,1.1-1.335,2.29-1.733,1.056-.353.974-1.381.293-2.007s-1.607-.9-2.309-1.482c-1.3-1.079-.983-3.1-.852-4.533.006-.066.007-.126.01-.19.13-.069.272-.136.43-.2a1.11,1.11,0,0,0,.52-1.5c-.582-1.83-3.625-1.951-4.72-3.451-.3-.991,1.571-1.833,2.617-1.952a2.711,2.711,0,0,0,1.274-.515c.76-.619,1.409-1.852.61-2.661a2.646,2.646,0,0,0-1.23-.664c-.974-.763-2.506-.29-3.962-.014a13.35,13.35,0,0,1-1.828.1,4.7,4.7,0,0,0-1.921-1.408h-.006a4.386,4.386,0,0,1-.955-1.829c-.029-.086-.131-.118-.254-.121,0-2.66,2.156-5.4.711-8.1-.127-.236-.727-.039-.845.131-1.522,2.182-3.736,4.66-6.4,2.216-1.787-1.639-.242-3.589.982-4.894,1.6-1.71,4-3.491,3.526-6.125-.018-.1-.194-.1-.259-.095-4.022.154-4.641,6.1-6.546,8.668-1.216,1.642-1.6-.08-2.5-.7a4.154,4.154,0,0,0-2.507-.808c-.83-.005-1.8-.561-2.634-.235a1.192,1.192,0,0,0-.448.318c-.65.756-1.19.017-1.535-.754-.12-.269-.782-.007-.879.185-.92,1.832-5.445,3.1-6.469,1.1a9.259,9.259,0,0,1-.417-2.831c-.113-.933-.05-3.8-1.618-3.238-.692.247-.914,1.373-1,1.963-.14.938.355,1.876.225,2.857-.152,1.153-1.48,1.907-2.311,2.524a5.563,5.563,0,0,0-1.829,3.273c-.514,1.77-2.933-2.2-3.028-2.387a6.344,6.344,0,0,0-1.719-2.27.724.724,0,0,0-.85.228c-.431,1.125.284,2.236.771,3.229,1.117,2.278.551,4.338-2.746,3.88-1.773-.246-3.006,1.689-3.618,3.192-.878.21-2.7-1.082-2.8,1.018-.009.2.228.418.349.549a1.661,1.661,0,0,1,.322,2.145c-.493.875-2.06.945-2.856,1.492-1.362.936.475,2.49,1.336,2.961a14.132,14.132,0,0,1,1.636.974c1.638,1.2-.841,2.5-2.177,1.591a10.8,10.8,0,0,0-2.7-1.846c-.582-.183-2.994.385-2.617,1.318.285.7,1.222.918,1.874,1.125,1.474.467,2.581.594,3.446,2.087,1.365,2.351-1.187,4.106-3.14,4.684-.3.088-1.187.329-1.2.774-.017.949,1.373,1.513,2.168,1.667a3.15,3.15,0,0,0,.588.028c.588.965-.611,3.05-.279,4.108a.743.743,0,0,0,.528.414,1.814,1.814,0,0,1,1.7,2.4c-.293,1.543-.709,2.082.5,3.213a12.738,12.738,0,0,0,1.546,1.306c-.051,1.537,2.008.933,2.98,1.76.677.576.553,1.549.9,2.294a.98.98,0,0,0,.155.242c0,.029.022.056.069.078.014.007.026.015.04.021a1.186,1.186,0,0,0,.378.217c1.555,1.073.975,3.372.623,5-.216,1-.942,2.908.015,3.732.724.624,2.057,0,2.638-.478a4.963,4.963,0,0,0,.719-.911c.79-1.094,2.279-1.184,3.446-1.514,1.09-.308,2.447-1,3.013.346a5.623,5.623,0,0,1-.068,3.182c-.489,2.24-1.451,3.76-1.378,6.081.024.778,0,2.885,1.254,2.691,1.508-.233,1.234-1.939,1.063-3.04-.2-1.257-.638-2.581-.135-3.815a17.351,17.351,0,0,1,2.1-3.681,13.445,13.445,0,0,1,1.863,4.973c.226,1.55-1.142,4.648,1.309,5.169.842.179,1.458-.712,1.732-1.336a4.737,4.737,0,0,0-.064-2.863c-.155-.6-.406-1.194-.591-1.789-.548-1.766,3.355-3.424,3.983-1.919.4.966.669,2.975,1.728,3.347A2.165,2.165,0,0,0,96.5,591.5c.808-1,.651-2.876.872-4.078a6.532,6.532,0,0,1,.3-1.048c.05-.137.892-1.414,1.432-1.433.271.871.514,1.3,1.456,1.305,1.649.01,2.885,1.852,4.549,2.233a2.362,2.362,0,0,0,2.485-3.51c-.69-.993-1.064-2.932.571-3.35a2.12,2.12,0,0,0,.878-.647c1.53-1.529-.208-.907.011-2.862q-.008-1.039,1.291-.42a7.822,7.822,0,0,1,.564,1.032,1.5,1.5,0,0,0,.971.784,2.4,2.4,0,0,0,1.974-.43,8.2,8.2,0,0,0,2.04-5.817c-.17-1.235,2.288.229,2.8.505a20.429,20.429,0,0,0,2.8,1.152,5.544,5.544,0,0,0,3.614.267C127.683,574.2,127.251,571.868,124.709,571.088Zm-23.2-25.277h8.838v2.365h-2.886v14.7h-2.958v-14.7h-2.994ZM98.794,558.12a2.364,2.364,0,0,0-.356-.727,5.554,5.554,0,0,0-.5-.619c-.161-.167-.4-.4-.7-.682l-2.745-2.439h0a4.727,4.727,0,0,1-1.7-3.877,4.845,4.845,0,0,1,.279-1.7,3.491,3.491,0,0,1,.857-1.315,4.3,4.3,0,0,1,3.051-1.107h.112a5.235,5.235,0,0,1,1.765.273,3.3,3.3,0,0,1,1.318.847,5.643,5.643,0,0,1,1.266,3.427l.026.28-2.595.719-.03-.41c-.026-.348-.061-.654-.1-.918a4.139,4.139,0,0,0-.21-.772,1.9,1.9,0,0,0-.324-.58,1.227,1.227,0,0,0-.476-.324,1.536,1.536,0,0,0-.585-.1c-.044,0-.089,0-.135,0a2.05,2.05,0,0,0-.946.263,1.062,1.062,0,0,0-.454.573,1.886,1.886,0,0,0-.094.627,2.3,2.3,0,0,0,.21,1.053,3.417,3.417,0,0,0,.756.921l2.763,2.438,0,0a8.866,8.866,0,0,1,1.781,2.158,5.277,5.277,0,0,1,.683,2.678,4.123,4.123,0,0,1-1.19,3.094,4.246,4.246,0,0,1-3.071,1.147,5.152,5.152,0,0,1-1.946-.343,3.714,3.714,0,0,1-1.458-1.05,6.089,6.089,0,0,1-1.29-3.688l-.016-.273,2.7-.734.026.413a6.341,6.341,0,0,0,.4,2.034,1.884,1.884,0,0,0,.808.988,1.6,1.6,0,0,0,.774.18,1.921,1.921,0,0,0,.659-.1,1.1,1.1,0,0,0,.435-.281,1.227,1.227,0,0,0,.269-.476,2.414,2.414,0,0,0,.1-.731A3.177,3.177,0,0,0,98.794,558.12Zm-16.759-6.931A6.482,6.482,0,0,1,83.15,547.1a3.5,3.5,0,0,1,1.523-1.1,6.065,6.065,0,0,1,2.176-.352,6,6,0,0,1,2.17.355,3.521,3.521,0,0,1,1.524,1.1,6.473,6.473,0,0,1,1.12,4.078V557.4a6.686,6.686,0,0,1-1.122,4.138,3.54,3.54,0,0,1-1.525,1.138,6.559,6.559,0,0,1-4.4-.024,3.522,3.522,0,0,1-1.532-1.191,5.12,5.12,0,0,1-.8-1.776,9.54,9.54,0,0,1-.248-2.3Zm-4.642,11.682H74.436v-17.06h7v2.315H77.393V552.9h3.133v2.3H77.393Zm20.3,12.121A4.811,4.811,0,0,1,94.83,578.1a3.231,3.231,0,0,1-2.96-.432,6,6,0,0,1-2.085-3.258q-.178-.563-.306-1.142a24.463,24.463,0,0,1-2.291,1.052q-.84.339-1.15.454.2,1.794.38,4.434.107,1.551-.87,1.86-1.061.335-1.364-.626a3.143,3.143,0,0,1-.105-.622q-.154-2.447-.319-4.126l-.784.284a1.381,1.381,0,0,1-.855.061.769.769,0,0,1-.445-.543,1.024,1.024,0,0,1,.061-.9,1.888,1.888,0,0,1,.952-.62l.867-.31a22.331,22.331,0,0,0-.694-3.7,1.829,1.829,0,0,0-.566-.987.791.791,0,0,0-.7-.088q-1.16.366-2.005,2.765a.637.637,0,0,1-.391.433.512.512,0,0,1-.466-.09.914.914,0,0,1-.338-.494,2,2,0,0,1,.069-1.224,6.276,6.276,0,0,1,1.313-2.245,4.6,4.6,0,0,1,2.046-1.366,2.106,2.106,0,0,1,1.9.211,3.838,3.838,0,0,1,1.312,2.109,24.812,24.812,0,0,1,.78,3.852l1.6-.6a17.933,17.933,0,0,0,1.737-.731,17.981,17.981,0,0,1-.166-3.7,8.47,8.47,0,0,1,.707-3.065,2.852,2.852,0,0,1,1.724-1.637,1.612,1.612,0,0,1,1.515.241,2.967,2.967,0,0,1,1.022,1.563q1.3,4.109-2.391,7.022.159.678.384,1.391a5.4,5.4,0,0,0,1.21,2.332,1.4,1.4,0,0,0,1.44.347,2.388,2.388,0,0,0,1.13-.749,6.141,6.141,0,0,0,.891-1.62.61.61,0,0,1,.374-.373.4.4,0,0,1,.4.091,1.078,1.078,0,0,1,.3.507A1.641,1.641,0,0,1,97.692,574.992Zm14-5.678a1.665,1.665,0,0,1-.929.749,1.11,1.11,0,0,1-.891-.083,1.287,1.287,0,0,1-.606-.793q-.1-.314-.181-.689a3.731,3.731,0,0,0-.082-.375.309.309,0,0,0-.121-.18.192.192,0,0,0-.162-.022q-.232.074-.454.754a8.568,8.568,0,0,0-.332,1.717,12.493,12.493,0,0,0-.039,2.125,2.754,2.754,0,0,1-.079,1.191,1.014,1.014,0,0,1-.678.506.948.948,0,0,1-1.1-.383,3.092,3.092,0,0,1-.3-.477,8.149,8.149,0,0,1-.679.824,5.032,5.032,0,0,1-2.195,1.385,3.868,3.868,0,0,1-3-.091,3.625,3.625,0,0,1-1.777-2.281,5.021,5.021,0,0,1-.192-2.28,4.127,4.127,0,0,1,.839-1.987,3.517,3.517,0,0,1,1.747-1.189,2.2,2.2,0,0,1,1.721.085,2.179,2.179,0,0,1,1.069,1.366,2.809,2.809,0,0,1-.2,2.222,6.216,6.216,0,0,1-2.364,2.177,1.705,1.705,0,0,0,1.814.265,3.794,3.794,0,0,0,1.533-1.058,5.857,5.857,0,0,0,.96-1.335,14.052,14.052,0,0,1-.58-3.949,1.307,1.307,0,0,1,.266-.858,1.807,1.807,0,0,1,.882-.524.98.98,0,0,1,.49-.064.359.359,0,0,1,.232.273,6.6,6.6,0,0,1,.128,1.271q.044.715.1,1.243a12.406,12.406,0,0,0,.221,1.278,9.873,9.873,0,0,1,.493-2.706,5.106,5.106,0,0,1,.922-1.694,2.479,2.479,0,0,1,1.056-.753,1.012,1.012,0,0,1,.824.04,1.19,1.19,0,0,1,.51.723,7.578,7.578,0,0,1,.194,1.25l.149-.047a.889.889,0,0,1,.7.061.908.908,0,0,1,.458.557,1.309,1.309,0,0,1,.048.5A2.941,2.941,0,0,1,111.692,569.314Z" transform="translate(-7.968 -1.577)" fill="#fff"/>
    <path id="Tracé_3328" data-name="Tracé 3328" d="M140.911,625.845a1.193,1.193,0,0,0-.321-.555.405.405,0,0,0-.4-.111q-.364.115-.561.906a8.832,8.832,0,0,0-.2,2.049,17.755,17.755,0,0,0,.21,2.684,4.209,4.209,0,0,0,1.463-2.174A5.086,5.086,0,0,0,140.911,625.845Z" transform="translate(-56.378 -62.176)" fill="#fff"/>
    <path id="Tracé_3329" data-name="Tracé 3329" d="M163.02,639.083a1.432,1.432,0,0,0,.223-1.254.754.754,0,0,0-.333-.45.638.638,0,0,0-.532-.042,1.273,1.273,0,0,0-.81,1.039,3.481,3.481,0,0,0,.122,1.856l.01.033A3.941,3.941,0,0,0,163.02,639.083Z" transform="translate(-69.632 -69.466)" fill="#fff"/>
    <path id="Tracé_3330" data-name="Tracé 3330" d="M161.02,681.872c-.03-.009-.063-.013-.093-.021a1.845,1.845,0,0,0-.281-.252.684.684,0,0,0-.779.243c-.06.016-.12.034-.173.052a1.783,1.783,0,0,0-.184.094,1.881,1.881,0,0,0-.588.4.926.926,0,0,0-.2.322.746.746,0,0,0-.22.722.724.724,0,0,0,.533.72,1.078,1.078,0,0,0,.406-.038,1.363,1.363,0,0,0,1-.093,1,1,0,0,0,.536-.378.391.391,0,0,0,.018-.049,1.679,1.679,0,0,0,.134-.18,1.193,1.193,0,0,0,.013-1.272C161.227,682.038,161.222,681.931,161.02,681.872Z" transform="translate(-67.823 -96.052)" fill="#fff"/>
    <path id="Tracé_3331" data-name="Tracé 3331" d="M186.941,681a2.08,2.08,0,0,0-1.555.4.343.343,0,0,0-.136.211,1.175,1.175,0,0,0-.487.35c-.289.21-.6.505-.45.824a1.248,1.248,0,0,0,.457.451.392.392,0,0,0,.142.138.653.653,0,0,0,.134.045,1.679,1.679,0,0,1,.222.174c.051.048.187.04.336,0a1.431,1.431,0,0,0,.471.061,1.679,1.679,0,0,0,1.094-.555,1.722,1.722,0,0,0,.644-1.369C187.762,681.313,187.316,681.085,186.941,681Z" transform="translate(-83.319 -95.705)" fill="#fff"/>
  </g>
</svg>
