<svg xmlns="http://www.w3.org/2000/svg" xmlns:xlink="http://www.w3.org/1999/xlink" width="618.681" height="381.912" viewBox="0 0 618.681 381.912">
  <defs>
    <linearGradient id="linear-gradient" x1="0.55" y1="-0.028" x2="0.463" y2="1.083" gradientUnits="objectBoundingBox">
      <stop offset="0" stop-color="#f58d64"/>
      <stop offset="0.086" stop-color="#f58b69"/>
      <stop offset="1" stop-color="#f17a99"/>
    </linearGradient>
    <linearGradient id="linear-gradient-2" x1="0.026" y1="0.042" x2="1.176" y2="1.135" gradientUnits="objectBoundingBox">
      <stop offset="0" stop-color="#c85a80"/>
      <stop offset="1" stop-color="#b41e46"/>
    </linearGradient>
    <linearGradient id="linear-gradient-3" y1="0.5" x2="1" y2="0.5" gradientUnits="objectBoundingBox">
      <stop offset="0" stop-color="#d99ec7"/>
      <stop offset="1" stop-color="#f8ad90"/>
    </linearGradient>
  </defs>
  <g id="Groupe_1898" data-name="Groupe 1898" transform="translate(-488.61 -941.034)">
    <path id="Tracé_3445" data-name="Tracé 3445" d="M963.614,979.546c-114.13,19.028-114.818,76.079-114.818,76.079s-59.882-79.238-177.433.764-43.62,254.407-43.62,254.407h437.641C1186.036,1146.29,1077.745,960.518,963.614,979.546Z" transform="translate(-14.922 -4.773)" fill="#edfff8"/>
    <g id="Groupe_1877" data-name="Groupe 1877" transform="translate(488.61 1047.956)">
      <path id="Tracé_3446" data-name="Tracé 3446" d="M732.928,1186.82c1.9,1.985,5.355,3.247,9.263,3.106s7.261-1.648,9.014-3.766c-1.9-1.986-5.355-3.247-9.262-3.105S734.682,1184.7,732.928,1186.82Z" transform="translate(-519.987 -1079.037)" fill="#8368cf"/>
      <g id="Groupe_1876" data-name="Groupe 1876">
        <path id="Tracé_3447" data-name="Tracé 3447" d="M521.457,1158.569a186.281,186.281,0,0,1,22.114,14.662,248.328,248.328,0,0,1,20.231,17.186,250.7,250.7,0,0,1,34.609,40.246,248.044,248.044,0,0,1,25.365,46.732,258.5,258.5,0,0,1,14.68,51.2l-3.76.627A255.046,255.046,0,0,0,621,1278.5a245.529,245.529,0,0,0-24.38-46.62,249.01,249.01,0,0,0-33.75-40.492A247.216,247.216,0,0,0,543,1173.974a185.936,185.936,0,0,0-21.788-14.937Z" transform="translate(-492.797 -1075.893)" fill="#8368cf"/>
        <path id="Tracé_3448" data-name="Tracé 3448" d="M488.61,1135.523c.415,5.9,4.34,12.438,10.876,17.037s14.016,6.086,19.708,4.484c-.414-5.9-4.339-12.437-10.875-17.037S494.3,1133.921,488.61,1135.523Z" transform="translate(-488.61 -1072.854)" fill="#8368cf"/>
        <path id="Tracé_3449" data-name="Tracé 3449" d="M538.129,1129.878c-4.364,3.991-7.048,11.129-6.589,19.107s3.94,14.762,8.732,18.228c4.365-3.991,7.048-11.13,6.59-19.107S542.921,1133.343,538.129,1129.878Z" transform="translate(-494.117 -1072.209)" fill="#8368cf"/>
        <path id="Tracé_3450" data-name="Tracé 3450" d="M613.9,1063.711c5.065,3.054,9.1,9.523,10.223,17.436s-.955,15.249-4.972,19.591c-5.065-3.053-9.1-9.523-10.224-17.435S609.885,1068.052,613.9,1063.711Z" transform="translate(-504.023 -1063.711)" fill="#8368cf"/>
        <path id="Tracé_3451" data-name="Tracé 3451" d="M646.189,1095.132c.619,4.578-1.345,10.2-5.613,14.757s-9.754,6.881-14.364,6.56c-.619-4.578,1.346-10.2,5.614-14.759S641.579,1094.81,646.189,1095.132Z" transform="translate(-506.267 -1067.742)" fill="#8368cf"/>
        <path id="Tracé_3452" data-name="Tracé 3452" d="M621.685,1119.043c-3.879,2.509-9.8,3.127-15.743,1.2s-10.379-5.9-12.049-10.2c3.878-2.51,9.8-3.127,15.742-1.2S620.013,1114.736,621.685,1119.043Z" transform="translate(-502.131 -1069.361)" fill="#8368cf"/>
        <path id="Tracé_3453" data-name="Tracé 3453" d="M627.806,1138.74c-3.878,2.51-9.8,3.127-15.743,1.2s-10.379-5.9-12.05-10.2c3.878-2.51,9.8-3.127,15.743-1.2S626.133,1134.433,627.806,1138.74Z" transform="translate(-502.917 -1071.891)" fill="#8368cf"/>
        <path id="Tracé_3454" data-name="Tracé 3454" d="M634.766,1163.263c-3.879,2.508-9.8,3.127-15.744,1.2s-10.378-5.9-12.049-10.2c3.878-2.509,9.8-3.126,15.743-1.2S633.093,1158.955,634.766,1163.263Z" transform="translate(-503.811 -1075.041)" fill="#8368cf"/>
        <path id="Tracé_3455" data-name="Tracé 3455" d="M639.434,1184.754c-3.879,2.51-9.805,3.127-15.744,1.2s-10.379-5.9-12.05-10.2c3.879-2.51,9.8-3.127,15.743-1.2S637.761,1180.447,639.434,1184.754Z" transform="translate(-504.41 -1077.801)" fill="#8368cf"/>
        <path id="Tracé_3456" data-name="Tracé 3456" d="M641.588,1180.4c3.879,2.509,9.8,3.127,15.743,1.2s10.379-5.9,12.05-10.2c-3.879-2.51-9.8-3.127-15.744-1.2S643.26,1176.1,641.588,1180.4Z" transform="translate(-508.256 -1077.242)" fill="#8368cf"/>
        <path id="Tracé_3457" data-name="Tracé 3457" d="M652.436,1115.579c.62,4.579-1.344,10.2-5.612,14.759s-9.754,6.881-14.363,6.56c-.62-4.578,1.344-10.2,5.613-14.758S647.827,1115.258,652.436,1115.579Z" transform="translate(-507.07 -1070.368)" fill="#8368cf"/>
        <path id="Tracé_3458" data-name="Tracé 3458" d="M658.948,1139.695c.62,4.578-1.344,10.2-5.612,14.759s-9.755,6.88-14.364,6.559c-.62-4.578,1.344-10.2,5.614-14.759S654.339,1139.374,658.948,1139.695Z" transform="translate(-507.906 -1073.466)" fill="#8368cf"/>
        <path id="Tracé_3459" data-name="Tracé 3459" d="M567.131,1144.842c-5.27,2.685-9.756,8.851-11.439,16.664s-.132,15.279,3.566,19.9c5.269-2.685,9.756-8.851,11.438-16.664S570.828,1149.459,567.131,1144.842Z" transform="translate(-497.138 -1074.13)" fill="#8368cf"/>
        <path id="Tracé_3460" data-name="Tracé 3460" d="M587.238,1163.342c-5.269,2.685-9.756,8.851-11.439,16.663s-.132,15.279,3.566,19.9c5.269-2.685,9.757-8.851,11.438-16.664S590.935,1167.959,587.238,1163.342Z" transform="translate(-499.72 -1076.506)" fill="#8368cf"/>
        <path id="Tracé_3461" data-name="Tracé 3461" d="M501.076,1183.815c5.029,3.115,12.628,3.753,20.18,1.141s13.133-7.81,15.163-13.365c-5.029-3.113-12.626-3.752-20.18-1.14S503.106,1178.26,501.076,1183.815Z" transform="translate(-490.211 -1077.21)" fill="#8368cf"/>
        <path id="Tracé_3462" data-name="Tracé 3462" d="M519.379,1198.878c5.028,3.113,12.627,3.753,20.179,1.141s13.134-7.81,15.164-13.366c-5.029-3.113-12.628-3.752-20.18-1.139S521.408,1193.322,519.379,1198.878Z" transform="translate(-492.562 -1079.145)" fill="#8368cf"/>
        <path id="Tracé_3463" data-name="Tracé 3463" d="M538.889,1217.45c5.028,3.113,12.627,3.753,20.18,1.14s13.132-7.81,15.163-13.366c-5.029-3.113-12.627-3.752-20.18-1.14S540.919,1211.894,538.889,1217.45Z" transform="translate(-495.067 -1081.53)" fill="#8368cf"/>
        <path id="Tracé_3464" data-name="Tracé 3464" d="M560.91,1230.217c4.09,2.532,10.27,3.051,16.414.926s10.68-6.352,12.333-10.87c-4.091-2.533-10.271-3.052-16.414-.927S562.562,1225.7,560.91,1230.217Z" transform="translate(-497.895 -1083.528)" fill="#8368cf"/>
        <path id="Tracé_3465" data-name="Tracé 3465" d="M648.47,1315.649a332.728,332.728,0,0,0,3.5-53.682c-.074-8.966-.567-17.921-1.278-26.85-.681-8.934-1.771-17.827-3.014-26.692a492.774,492.774,0,0,0-10.581-52.607q-3.348-12.991-7.4-25.784c-2.711-8.525-5.609-16.978-8.952-25.3l-1.053.432c3.212,8.291,6.005,16.778,8.6,25.3s4.94,17.131,7.057,25.789a490.53,490.53,0,0,1,9.88,52.5c1.126,8.832,2.1,17.685,2.665,26.565.6,8.877.973,17.77.935,26.661a329.174,329.174,0,0,1-4.118,53.063Z" transform="translate(-505.444 -1068.98)" fill="#8368cf"/>
        <path id="Tracé_3466" data-name="Tracé 3466" d="M729.9,1177.625c-9.386,11.475-18.183,23.428-26.533,35.665a422.661,422.661,0,0,0-23.143,37.88c-6.947,13.035-13.14,26.535-17.314,40.624a102.77,102.77,0,0,0-4.061,21.478c-.465,7.216.147,14.528,2.644,21.152l-3.578,1.312a54.367,54.367,0,0,1-2.417-22.718,105.7,105.7,0,0,1,4.628-22.07c4.553-14.288,11.084-27.766,18.338-40.742a424.51,424.51,0,0,1,24-37.547c8.616-12.089,17.662-23.871,27.287-35.165Z" transform="translate(-510.009 -1078.324)" fill="#8368cf"/>
        <path id="Tracé_3467" data-name="Tracé 3467" d="M750.028,1159.739a12.1,12.1,0,0,0-9.42,15.676,12.1,12.1,0,0,0,9.42-15.676Z" transform="translate(-520.883 -1076.044)" fill="#8368cf"/>
        <path id="Tracé_3468" data-name="Tracé 3468" d="M725.056,1167.939c-1.255,2.445-1.319,6.122.091,9.769s3.928,6.324,6.5,7.291c1.256-2.446,1.32-6.122-.089-9.769S727.631,1168.9,725.056,1167.939Z" transform="translate(-518.853 -1077.097)" fill="#8368cf"/>
        <path id="Tracé_3469" data-name="Tracé 3469" d="M724.31,1198.116c2.092,1.784,5.655,2.691,9.528,2.158s7.059-2.371,8.59-4.655c-2.093-1.784-5.656-2.69-9.529-2.157S725.84,1195.833,724.31,1198.116Z" transform="translate(-518.88 -1080.355)" fill="#8368cf"/>
        <path id="Tracé_3470" data-name="Tracé 3470" d="M713.709,1211.8c2.091,1.784,5.653,2.691,9.528,2.156s7.058-2.37,8.589-4.652c-2.092-1.784-5.655-2.692-9.528-2.158S715.24,1209.519,713.709,1211.8Z" transform="translate(-517.519 -1082.113)" fill="#8368cf"/>
        <path id="Tracé_3471" data-name="Tracé 3471" d="M706.508,1222.7c2.091,1.785,5.654,2.691,9.528,2.158s7.058-2.37,8.589-4.654c-2.092-1.784-5.655-2.692-9.528-2.158S708.039,1220.42,706.508,1222.7Z" transform="translate(-516.594 -1083.512)" fill="#8368cf"/>
        <path id="Tracé_3472" data-name="Tracé 3472" d="M698.523,1234.736c2.092,1.785,5.655,2.691,9.528,2.158s7.059-2.37,8.589-4.654c-2.091-1.785-5.654-2.691-9.528-2.158S700.054,1232.452,698.523,1234.736Z" transform="translate(-515.569 -1085.058)" fill="#8368cf"/>
        <path id="Tracé_3473" data-name="Tracé 3473" d="M715.828,1179.68c-1.256,2.446-1.32,6.122.089,9.77s3.929,6.325,6.5,7.291c1.257-2.447,1.32-6.123-.089-9.77S718.4,1180.646,715.828,1179.68Z" transform="translate(-517.668 -1078.604)" fill="#8368cf"/>
        <path id="Tracé_3474" data-name="Tracé 3474" d="M707.007,1191.766c-1.256,2.445-1.319,6.121.089,9.77s3.929,6.323,6.5,7.29c1.256-2.446,1.321-6.122-.09-9.769S709.582,1192.732,707.007,1191.766Z" transform="translate(-516.535 -1080.157)" fill="#8368cf"/>
        <path id="Tracé_3475" data-name="Tracé 3475" d="M698.613,1203.949c-1.256,2.447-1.32,6.122.089,9.769s3.928,6.326,6.5,7.291c1.257-2.445,1.32-6.121-.089-9.769S701.187,1204.915,698.613,1203.949Z" transform="translate(-515.457 -1081.721)" fill="#8368cf"/>
        <path id="Tracé_3476" data-name="Tracé 3476" d="M690.479,1215.886c-1.256,2.445-1.32,6.121.09,9.769s3.927,6.325,6.5,7.291c1.257-2.446,1.32-6.122-.089-9.769S693.053,1216.851,690.479,1215.886Z" transform="translate(-514.413 -1083.254)" fill="#8368cf"/>
      </g>
    </g>
    <path id="Tracé_3477" data-name="Tracé 3477" d="M1114.369,1363.983c0,6.5-114.224,11.769-255.126,11.769s-255.127-5.27-255.127-11.769,114.225-11.768,255.127-11.768S1114.369,1357.484,1114.369,1363.983Z" transform="translate(-14.834 -52.806)" fill="#bb9ccb"/>
    <g id="Groupe_1879" data-name="Groupe 1879" transform="translate(621.134 949.711)">
      <g id="Groupe_1878" data-name="Groupe 1878" transform="translate(0)">
        <path id="Tracé_3478" data-name="Tracé 3478" d="M735.429,1006.065c-1.074-1.074,7.359.5,7.359.5,0-.827,1.323-7.441,1.323-7.441a8.639,8.639,0,0,1-4.217.5,5.112,5.112,0,0,1-2.811-1.572c-1.24.414-1.075,4.713-1.652,6.036s-2.564.5-1.241-1.488a10.6,10.6,0,0,0,1.24-5.209l-3.886-1.819s-1.034,3.184-2.15,4.3-.62,6.241-1.571,7.192-2.48-.909-1.239-3.555,3.8-7.937,3.8-7.937.413-.412-1.571-.412-9.178-1.572-9.178-1.572-1.487,6.614,0,10.087,1.82,5.456-.826,4.795-.744-14.881-.744-14.881l-9.094,2.481a23.452,23.452,0,0,0,.826,8.929c1.406,4.547,5.291,4.381,3.8,5.869s-2.976-1.819-5.705-4.546-3.058-8.516-3.058-8.516l-10.665,7.027a21.077,21.077,0,0,0,7.937,7.111c4.878,2.232,8.186,2.729,5.705,4.05s-6.841-1.343-9.219-3.719-7.317-3.638-7.317-3.638l-2.976,10.169s.579,1.24,2.976,1.24a55.729,55.729,0,0,0,10-.826c4.216-.743,5.291,1.572,3.968,2.895s-6.7-2.068-9.012-1.076-7.936,1.24-7.936,1.24,4.216,9.921,11.16,5.7c5.226-3.173,7.924-3.255,8.94-3.1-.984.984-2.57,2.616-3.991,4.285-6.979,8.23-8.663,13.474-9,14.086-1.453,6.8-2.134,16.507-2.5,18.652l4.156-.543c-.858-12.224.421-16.976.454-17.34a42.711,42.711,0,0,1,5.562-10.292c.011-.017.8-1.088.855-1.157a74.191,74.191,0,0,1,5.467-6.51c.553,2.715-2.262,8.14-2.262,11.43,0,3.8,5.787,5.374,5.787,5.374-1.406-1.406-1.943-12.029-.248-13.725s4.05.745,2.4,3.555-2.314,10.087.662,10.831,7.937-3.391,7.937-3.391a79.035,79.035,0,0,1-5.29-7.937c-1.157-2.4.579-2.977.579-5.126s-1.035-2.274.165-3.472,3.059,8.1,3.556,10.169,3.719,6.365,3.719,6.365l8.02-7.027s-2.48-3.39-5.291-4.083-7.937-6.417-6.532-7.079,2.482,2.4,5.87,4.8,8.764,1.819,8.764,1.819l2.811-7.276s-7.027-1.735-7.937-2.645-3.638.166-5.869-.826-.248-2.646,3.72-2.232,5.291,3.885,8.1,4.381,3.143-.826,3.143-.826l1.157-4.548-1.819-.909c-2.976,0-11.575-3.473-8.516-4.217s5.7,2.563,7.027,2.976a19.191,19.191,0,0,0,3.721.744c1.24,0,.166-5.954.166-5.954S736.5,1007.14,735.429,1006.065Zm-9.259-9.424s.166,2.48-1.241,1.075S726.171,996.64,726.171,996.64Zm-6.821,13.062s2.439-.784,2.728.785-1.117,1.984-2.481,1.483S719.349,1009.7,719.349,1009.7Zm-4.753,2.275s2.521,2.19,2.521,3.141-1.9.455-3.141-1.447S714.6,1011.977,714.6,1011.977Zm5.921,9.176c-1.89.661-1.456-2.4-1.293-2.56,0,0,2.624-1.014,3.638,0S722.409,1020.493,720.517,1021.153Zm15.491.785h2.314c.91,0-.082,1.24-1.652,1.24S736.009,1021.938,736.009,1021.938Z" transform="translate(-646.781 -956.46)" fill="#00977d"/>
        <path id="Tracé_3479" data-name="Tracé 3479" d="M703.78,993.507c0,.014-6.332-.064-9.87,2.373-3.532,2.379-9.395,5.18-12.089,2.541-2.663-2.686,1.46-2.513,7.964-4.048,6.467-1.626,11.841-6.423,11.873-6.369a102.931,102.931,0,0,1-9.231-13.692c-.071,0-3.32,7.333-7.549,10.066-4.346,2.644-7.22,7.191-8.482,4.327-1.2-2.854,3.249-1.163,6.813-7.068a59.687,59.687,0,0,0,5.5-11.971q-4.391-4.367-8.516-9.272c0,.021-1.932,5.464-3.725,11.063-1.882,5.572-3.621,11.3-5.314,11.24-3.373-.136-2.214-3.338,1.265-8.007,3.322-4.655,5.953-15.36,6.063-15.373,0-.015-8.915-2.617-11.06-4.042s-2-.458-2-.455c-.086.013-.957,10.563-.871,15.682-.028,5.106-2.613,7.456-3.277,5.33-.717-2.2,2.723-10.615,2.281-13.169-.57-2.605.586-8.69.62-8.687q-2.769.1-5.54.274c-.015-.024-2.447,5.611-2.155,10.011.289,4.317-2.406,4.646-2.3,1.875.06-2.754,3.164-10.315,2.177-11.925a5.3,5.3,0,0,1-4.2.8c-2.374-.591-4.2-3.99-4.2-4.021-.161-.024-3.264,13.517-3.567,15.146.018.035,9.184,2,8.868,3.334l-.007,0c-.027.16-.2.283-.344.36h0c-1.976,1.077-9.089-2.452-9.089-2.512-.11-.072-4.386,11.1-2.814,11.824a14.631,14.631,0,0,0,4.683.512c1.713-.172,6.328-4.888,9.547-1.852,3.219,2.829-8.328,4.909-11.82,3.492q-1.258.422-2.512.866-.226,4.836-.187,9.66c-.005,0,.033,2.814,3.56,2.965,3.486.1,6.1-5.931,11-4.929,1.709.342,3.97,1.292,4.853,2.772l-.006,0c1.351,2.2-1.151,3.319-3.652,2.728-2.014-.483-3.741-1.663-4.673-.745-1.335,1.319-10.246,1.988-10.246,2q.859,7.852,2.411,15.5c.009.063,6.588,2.431,10.905-1.26,3.648-3.076,5.535-7.13,6.993-7.353h0a.867.867,0,0,1,.77.283c1.425,1.333-4.5,9.186-7.924,10.875l0,0a3.755,3.755,0,0,1-.763.3c-3.525.64-6.5,6.769-6.47,6.805a151.14,151.14,0,0,0,11,14.294c0-.175,3.087-7.848,3.591-11.393.117-3.806,3.056-19.606,4.567-17.139,1.436,2.479-.206,2.538-.1,6.42.087,3.329,1.988,4.594.723,8.4-1.414,3.881-5.491,13.679-5.406,13.762-.049.112,7.216,7.339,10.657,5.661s.616-14.1-1.146-18.294c-2.547-5.61,1.691-8.932,3.12-4.995l0-.035c1.46,3.938,2.187,19.462,1.273,21.956.029-.006,6.523-3.186,5.893-9.062-.633-4.933-4.094-13.547-3.378-17.77,3.981,6.585,5.251,10.2,5.491,10.3,4.131,8.357,3.77,12.489,3.816,12.766.208.569.839,6.769,1.656,23.768q2.548.068,5.086.073c-2-8.283-2.6-15.015-4.123-24.769-2.692-8.026-7.829-18.045-11-23.962.7-.2,3.932-.276,11.22,5.473,4.237,3.109,7.568,1.056,10.014-1.374a27.66,27.66,0,0,0,3.979-5.392c0,.02-6.809-.759-9.492-2.452-2.684-1.735-9.682,2.178-11.123.059-1.455-2.236.282-5.369,5.273-3.408a47.3,47.3,0,0,0,12.024,2.74c2.908.292,3.806-1.142,3.81-1.134A102.386,102.386,0,0,1,703.78,993.507Zm-58.489,8.142c-1.922-.537-2.882-3.388-1.772-3.044.816.255,1.9.584,2.811.855C646.324,999.462,647.2,1002.188,645.291,1001.649Zm12.945,1.813c-2.188-1.654-3.791-3.7-2.324-5.116,1.467-1.386,4.4,1.2,4.4,1.185C660.45,999.849,660.408,1005.1,658.236,1003.462Zm16.8-10.549c-2.05,2.525-4.456,2.726-4.2,1.175s3.956-4.05,3.994-4.05C674.836,990.051,677.1,990.419,675.033,992.914Zm-5.013-8.472c-.012.008.644,3.322-1.144,3.571-1.795.264-3.343-1.03-2.386-3.522C667.459,982.028,670.02,984.458,670.02,984.442Zm-.766-24.907c0,.01,3.12,1.264.649,2.549C667.423,963.413,669.237,959.531,669.254,959.535Z" transform="translate(-640.662 -950.99)" fill="#00e6be"/>
      </g>
      <path id="Tracé_3480" data-name="Tracé 3480" d="M714.505,1043.976H682c7.8,22.9-7.8,45.807,0,68.712,1.437,2.644,7.172,3.279,16.185,3.279s14.911-.635,16.32-3.279C722.306,1089.783,706.7,1066.879,714.505,1043.976Z" transform="translate(-645.682 -962.932)" fill="#c46c9f"/>
      <path id="Tracé_3481" data-name="Tracé 3481" d="M717.95,1043.976h-9.13c-7.8,23.8,7.8,47.6,0,71.4a2.876,2.876,0,0,1-.251.4c5.08-.339,8.375-1.2,9.381-3.09C725.751,1089.783,710.149,1066.879,717.95,1043.976Z" transform="translate(-649.126 -962.932)" fill="#f4b1ef"/>
    </g>
    <g id="Groupe_1880" data-name="Groupe 1880" transform="translate(873.426 1000.188)">
      <path id="Tracé_3482" data-name="Tracé 3482" d="M930.658,1086.042a.466.466,0,0,1-.1-.01.526.526,0,0,1-.415-.62l15.074-76.08a.529.529,0,1,1,1.037.206l-15.075,76.08A.528.528,0,0,1,930.658,1086.042Z" transform="translate(-930.129 -1008.905)" fill="#473872"/>
    </g>
    <g id="Groupe_1881" data-name="Groupe 1881" transform="translate(872.04 1008.071)">
      <path id="Tracé_3483" data-name="Tracé 3483" d="M930.453,1094.966a.528.528,0,0,1-.528-.519l-1.386-75.958a.529.529,0,0,1,.52-.538.509.509,0,0,1,.538.52l1.385,75.957a.529.529,0,0,1-.52.539Z" transform="translate(-928.539 -1017.949)" fill="#3e1d9b"/>
    </g>
    <path id="Tracé_3484" data-name="Tracé 3484" d="M932.428,1083.053c1.461-7.433,3.652-18.8,12.874-28.668a31.193,31.193,0,0,1,8.452-6.6.529.529,0,0,1,.479.943C941.172,1055.352,935.482,1069.327,932.428,1083.053Z" transform="translate(-56.998 -13.702)" fill="#473872"/>
    <path id="Tracé_3485" data-name="Tracé 3485" d="M970.786,1042.9c-.617,0-14.017-4.144-23.8-.441s-8.21,14.028-2.832,14.028c0,0-1.311,6.424,3.185,6.424s10.316-1.851,14.987-9.961S970.786,1042.9,970.786,1042.9Z" transform="translate(-57.954 -12.828)" fill="#473872"/>
    <path id="Tracé_3486" data-name="Tracé 3486" d="M968.661,1043.877s-8.4,1.852-12.76,4.365-10.116,7.6-7.869,10.776,7.736-.793,8.86-3.968-3.484-1.12-1.852-2.753,4.827.77,6.215-1.543-2.744-.563-.925-2.381S967.405,1045.663,968.661,1043.877Z" transform="translate(-58.937 -13.208)" fill="#514082"/>
    <path id="Tracé_3487" data-name="Tracé 3487" d="M954.98,1006.02a7.342,7.342,0,1,1-4-9.323A7.177,7.177,0,0,1,954.98,1006.02Z" transform="translate(-58.092 -7.07)" fill="#514082"/>
    <path id="Tracé_3488" data-name="Tracé 3488" d="M934.819,1014.548a7.342,7.342,0,1,1-4-9.323A7.175,7.175,0,0,1,934.819,1014.548Z" transform="translate(-55.503 -8.165)" fill="#514082"/>
    <path id="Tracé_3489" data-name="Tracé 3489" d="M950.312,1007.484c-.174-5.392-.048-.172-.146-.283l-1.816-1.353-2.494,1.8c0-.3.031-2.674.029-2.565l-2.2-.014c.069-.242.725-2.568.695-2.46l-1.278-.563,2.566-1.185c-.031-.119-.705-2.645-.664-2.493.251.094,3,1.116,2.828,1.052.313-.5,1.289-2.062,1.672-2.514a10.116,10.116,0,0,1-.06,2.325c.619-3.631.113-2.915-1.732-.193l-3.337-1.38c.179.715.772,3.088.735,2.935l-3.258,1.457,1.9.853-.716,2.657,2.384-.014c0,.341.034,3.077.032,2.909.13-.1,3.091-2.412,2.9-2.264Z" transform="translate(-58.207 -7.156)" fill="#7766bf"/>
    <g id="Groupe_1882" data-name="Groupe 1882" transform="translate(866.861 996.895)">
      <path id="Tracé_3490" data-name="Tracé 3490" d="M927.846,1015.218l-1.366,1.074c.025-.118.465-2.233.436-2.1l-2.811.085c1.608-1.177,1.75-1.3,2.029-1.508-.314-.25-2.354-1.868-2.248-1.783l2.1-.258-.94-2.293,2.252,1.029-2.659-1.482c.064.183.921,2.605.866,2.451l-2.706.233c.281.23,2.7,2.209,2.556,2.089-1.672,1.213-2.494,1.853-2.765,2.057l3.8-.171c-.039.23-.448,2.63-.431,2.522.126-.108,1.929-1.658,1.813-1.559l1.708,2.7Z" transform="translate(-922.596 -1005.493)" fill="#7766bf"/>
      <path id="Tracé_3491" data-name="Tracé 3491" d="M932.434,1013.951c.861-.581,1.718-1.17,2.548-1.8-1.139.569-2.108,1.13-3.056,1.669.164.31.025.095,1.366,2.567-2.335-1.117-1.93-.907-2.324-1.091-.173,1.157-.349,2.269-.47,3.549.287-.988.524-1.986.753-2.984.395.21,3.125,1.612,3.233,1.667C933.654,1016.059,932.967,1014.848,932.434,1013.951Z" transform="translate(-923.611 -1006.028)" fill="#7766bf"/>
      <path id="Tracé_3492" data-name="Tracé 3492" d="M933,1008.085l.215-.408-.463.076c-1.039.172-2.073.373-3.106.583-.322-1.912-.5-2.678-.606-3.21-.1.438-.413,1.727-.759,3.662.246-.714.466-1.436.687-2.158.229,1.809.272,1.979.308,2.233.119-.021,1.226-.2,3.113-.573-1.028,2.06-.935,1.93-1.083,2.238.621.139,1.764.422,3.39.72-.959-.339-1.925-.646-2.9-.94C932.217,1009.574,932.611,1008.829,933,1008.085Z" transform="translate(-923.327 -1005.126)" fill="#7766bf"/>
    </g>
    <path id="Tracé_3493" data-name="Tracé 3493" d="M1030.14,1142.365v-21.988H654.181v21.988h25.782V1330.52h15.006V1142.365H995.718V1330.52h16.751l.02-188.155Z" transform="translate(-21.264 -23.032)" fill="#67358e"/>
    <rect id="Rectangle_304" data-name="Rectangle 304" width="401.736" height="9.172" transform="translate(620.446 1092.558)" fill="#4d276b"/>
    <rect id="Rectangle_305" data-name="Rectangle 305" width="401.736" height="4.586" transform="translate(620.446 1092.558)" fill="#79bad6"/>
    <g id="Groupe_1883" data-name="Groupe 1883" transform="translate(924.988 1048.377)">
      <path id="Tracé_3494" data-name="Tracé 3494" d="M1068.443,1192.7c6.565-14.584,11.966-18.615,14.237-19.717-.734,3.613-1.861,9.548-2.6,15.323-2.254,17.823-1.782,30.048-1.088,37.152h5.247a139.1,139.1,0,0,1-.947-25.014c0-.052.233-3.59.247-3.82a216.906,216.906,0,0,1,2.741-22.43c4.64,5.319,5.912,21.53,10.17,28.928,4.922,8.552,18.772,3.836,18.772,3.836-4.689-1.158-19.535-24.281-18.269-30.507s9.235-4.1,9.5,4.577,8.328,25.981,15.368,23.411,11.82-18.933,11.82-18.933-15.61-6.565-21.076-10.306-2.672-7.517-5.453-12.351-5.052-3.64-4.155-8.045,16.732,13.859,20.418,17.8,15.836,9.013,15.836,9.013l7.28-27.231s-9.451-4.088-16.086-1.639-24.512-3.119-22.5-6.61,8.167,1.857,18.191,2.417,20.249-8.4,20.249-8.4l-3.676-20.367s-16.6,6.111-19.63,5.363-7.214,5.556-13.055,6.507-3.93-5.6,4.707-10.322,15.833,1.2,22.216-1.694,5.344-6.336,5.344-6.336l-3.522-11.874-4.891.547c-6.077,4.241-28.127,8.688-22.845,2.655s14.965-2.367,18.2-3.323a43.848,43.848,0,0,0,8.56-3.629c2.532-1.767-7.367-13.621-7.367-13.621s-13.273,9.005-16.86,8.12,15.667-9.372,15.667-9.372c-1.069-1.859-6.928-18.617-6.928-18.617s-3.55,5.344-7.968,7.124a11.269,11.269,0,0,1-7.773.474c-2,2.7,3.9,12.129,4.436,15.926s-4.593,4.77-4.459-1.577-4.209-13.48-4.209-13.48L1092,1074.11s2.01,8.631,1.175,12.731,6.811,14.92,6.1,18.413-6.242,1.49-7.134-6.227-2.506-23.267-2.506-23.267.31-1.518-3.743,1.309-20.771,9.547-20.771,9.547,5.521,16.993,13.054,22.68,10.775,9.678,4.516,11.961-20.779-32.4-20.779-32.4l-15.36,18.538a62.452,62.452,0,0,0,13.244,18.9c8.755,8.223,16.475,2.313,15.364,7.78s-8.433.153-17.533-2.094-17.268-14.79-17.268-14.79l-12.683,31s12.559,6.609,25.409,4.678,20.243-5.531,16.89.979-15.707,6.729-23.638,4.772-19.648,2.248-19.648,2.248l7.083,27.109s2.786,1.964,7.682-1.454a136.848,136.848,0,0,0,19.357-16.116c7.646-7.683,12.837-4.009,11.847.851s-16.348,4.9-19.791,10.427-14.6,14.1-14.6,14.1S1059.719,1212.083,1068.443,1192.7Zm66.805-65.651,4.727-3.3c1.857-1.3,1.436,2.907-1.771,5.146S1135.248,1127.053,1135.248,1127.053Zm-38.6,16.4s4.043-6.02,7.427-5.185,1.529,4.915-1.476,9.1S1096.528,1144.051,1096.651,1143.45Zm-15.374-55.081c-4.688-1.158,1.142-4.184,1.142-4.184S1085.966,1089.528,1081.277,1088.37Zm10.707,32.788c2.624,3.12.289,6.052-3.146,6.866s-3.44-4.745-3.44-4.745S1089.361,1118.038,1091.983,1121.158Zm-13.352,14.01s7.984,1.333,9.214,3.471-3.294,3.733-8.286,1.224S1078.632,1135.168,1078.632,1135.168Z" transform="translate(-994.092 -1064.194)" fill="#ee9486"/>
      <path id="Tracé_3495" data-name="Tracé 3495" d="M1164.781,1166.779c-2.141-2.177,14.658,1,14.658,1,0-1.675,2.635-15.068,2.635-15.068s-4.611,1.841-8.4,1.006a10.154,10.154,0,0,1-5.6-3.182c-2.47.838-2.141,9.543-3.292,12.223s-5.107,1-2.473-3.015,2.47-10.547,2.47-10.547l-7.74-3.684s-2.058,6.446-4.281,8.707-1.236,12.641-3.13,14.566-4.941-1.842-2.469-7.2,7.576-16.073,7.576-16.073.823-.837-3.13-.837-18.281-3.18-18.281-3.18-2.965,13.394,0,20.425,3.623,11.049-1.646,9.709-1.482-30.135-1.482-30.135l-18.117,5.023a48.232,48.232,0,0,0,1.646,18.081c2.8,9.208,10.541,8.874,7.576,11.887s-5.928-3.683-11.364-9.209-6.093-17.244-6.093-17.244l-21.245,14.231s6.093,9.877,15.81,14.4,16.3,5.524,11.364,8.2-13.628-2.72-18.363-7.534-14.574-7.366-14.574-7.366l-5.93,20.593s1.153,2.511,5.93,2.511a109.357,109.357,0,0,0,19.927-1.673c8.4-1.508,10.539,3.18,7.9,5.859s-13.339-4.186-17.951-2.177-15.81,2.511-15.81,2.511,8.4,20.091,22.233,11.553c10.411-6.426,15.784-6.594,17.807-6.283-1.958,1.992-5.12,5.3-7.949,8.677-13.9,16.667-17.255,27.286-17.92,28.527-2.894,13.768-4.25,33.425-4.969,37.77l8.277-1.1c-1.708-24.754.841-34.377.906-35.113.133-.315,2.994-9.282,11.08-20.843.022-.031,1.6-2.2,1.7-2.344a150.231,150.231,0,0,1,10.891-13.182c1.1,5.5-4.509,16.483-4.509,23.146,0,7.7,11.528,10.882,11.528,10.882-2.8-2.846-3.871-24.359-.494-27.792s8.07,1.507,4.776,7.2-4.611,20.425,1.318,21.932,15.809-6.864,15.809-6.864-8.234-11.218-10.539-16.073,1.152-6.028,1.152-10.38-2.059-4.6.329-7.031,6.093,16.407,7.082,20.592,7.411,12.892,7.411,12.892l15.974-14.232s-4.94-6.865-10.54-8.266-15.81-13-13.01-14.335,4.94,4.855,11.693,9.709,17.457,3.684,17.457,3.684l5.6-14.733s-14-3.516-15.81-5.358-7.245.336-11.692-1.673-.494-5.358,7.411-4.52,10.54,7.869,16.139,8.873,6.258-1.675,6.258-1.675l2.306-9.208-3.624-1.842c-5.928,0-23.056-7.032-16.962-8.538s11.363,5.19,14,6.027a37.6,37.6,0,0,0,7.411,1.507c2.471,0,.33-12.055.33-12.055S1166.922,1168.955,1164.781,1166.779Z" transform="translate(-999.77 -1074.122)" fill="#c41f7e"/>
      <path id="Tracé_3496" data-name="Tracé 3496" d="M1015.626,1166.288c.244.07.492.137.738.2a88.659,88.659,0,0,1-16.505,6.479A106.934,106.934,0,0,0,1015.626,1166.288Z" transform="translate(-990.646 -1077.305)" fill="#00c9a7"/>
      <path id="Tracé_3497" data-name="Tracé 3497" d="M1003.314,1117.286c.337.11.672.217,1,.315-4.653.3-7.544,1.429-8.406,1.028C996.713,1118.954,999.2,1117.921,1003.314,1117.286Z" transform="translate(-990.139 -1071.012)" fill="#00c9a7"/>
      <path id="Tracé_3498" data-name="Tracé 3498" d="M1013.918,1106.354q-3.122-7.469-6.176-15.108c1.832,4,4,8.776,6.41,13.99C1014.063,1105.624,1013.983,1106,1013.918,1106.354Z" transform="translate(-991.658 -1067.668)" fill="#00c9a7"/>
      <path id="Tracé_3499" data-name="Tracé 3499" d="M1091.918,1152.643c0,.023-10.3-.1-16.047,3.925-5.744,3.931-15.277,8.562-19.657,4.2-4.332-4.439,2.375-4.151,12.948-6.689,10.516-2.689,19.255-10.618,19.308-10.528a170.384,170.384,0,0,1-15.01-22.631c-.116,0-5.4,12.121-12.275,16.638-7.065,4.369-11.739,11.886-13.792,7.152-1.949-4.719,5.285-1.922,11.078-11.684a99.234,99.234,0,0,0,8.946-19.789q-7.139-7.217-13.848-15.326c0,.033-3.143,9.031-6.057,18.287-3.061,9.211-5.887,18.677-8.639,18.579-5.485-.224-3.6-5.518,2.054-13.235,5.4-7.7,9.682-25.391,9.858-25.412,0-.023-14.495-4.327-17.984-6.68-3.479-2.374-3.247-.757-3.247-.753-.142.023-1.557,17.462-1.416,25.923-.046,8.441-4.249,12.326-5.329,8.809-1.167-3.633,4.426-17.545,3.708-21.768-.927-4.306.955-14.365,1.007-14.358q-4.5.166-9.009.452c-.023-.04-3.975,9.275-3.5,16.548.47,7.135-3.912,7.681-3.738,3.1.1-4.552,5.144-17.051,3.54-19.712a8.507,8.507,0,0,1-6.827,1.32c-3.859-.978-6.832-6.6-6.832-6.646-.262-.04-5.306,22.344-5.8,25.036.029.058,14.933,3.311,14.419,5.512l-.009,0c-.048.264-.331.466-.564.6h0c-3.213,1.78-14.778-4.053-14.778-4.152-.178-.121-7.13,18.356-4.575,19.544a23.414,23.414,0,0,0,7.615.848c2.783-.286,10.291-8.08,15.523-3.061,5.235,4.676-13.541,8.115-19.218,5.773q-2.046.7-4.084,1.429-.37,8-.3,15.968c-.01,0,.053,4.651,5.787,4.9,5.669.171,9.914-9.8,17.891-8.146,2.78.563,6.457,2.137,7.891,4.581l-.009.007c2.2,3.644-1.871,5.487-5.938,4.51-3.275-.8-6.084-2.749-7.6-1.233-2.17,2.18-16.659,3.288-16.659,3.309q1.393,12.977,3.92,25.622c.013.1,10.712,4.017,17.73-2.083,5.934-5.085,9-11.785,11.373-12.154h0a1.4,1.4,0,0,1,1.252.466c2.318,2.205-7.312,15.187-12.885,17.978l0,0a5.964,5.964,0,0,1-1.242.5c-5.731,1.058-10.577,11.191-10.52,11.251a249.056,249.056,0,0,0,17.894,23.626c0-.289,5.02-12.972,5.836-18.831.192-6.292,4.97-32.409,7.428-28.33,2.334,4.1-.336,4.195-.161,10.609.142,5.5,3.232,7.6,1.176,13.883-2.3,6.416-8.93,22.612-8.791,22.749-.079.185,11.733,12.132,17.328,9.355,5.576-2.777,1-23.3-1.864-30.239-4.141-9.275,2.75-14.766,5.072-8.257,0-.019,0-.038,0-.058,2.373,6.51,3.556,32.172,2.07,36.293.045-.01,10.605-5.267,9.581-14.98-1.03-8.154-6.655-22.392-5.495-29.372,6.474,10.884,8.539,16.861,8.929,17.026,6.716,13.816,6.13,20.642,6.206,21.1.339.941,1.364,11.19,2.692,39.291q4.144.109,8.269.12c-3.252-13.692-4.224-24.821-6.7-40.945-4.379-13.267-12.731-29.829-17.888-39.608,1.144-.331,6.394-.457,18.244,9.045,6.891,5.139,12.3,1.747,16.285-2.271a45.678,45.678,0,0,0,6.469-8.913c.007.033-11.07-1.256-15.435-4.052-4.365-2.87-15.745,3.6-18.086.1-2.366-3.7.457-8.877,8.574-5.632a75.953,75.953,0,0,0,19.551,4.527c4.73.482,6.189-1.889,6.2-1.875A171.813,171.813,0,0,1,1091.918,1152.643Zm-95.1,13.46c-3.125-.886-4.687-5.6-2.882-5.032,1.328.421,3.1.965,4.571,1.413C998.5,1162.488,999.918,1166.995,996.815,1166.1Zm21.05,3c-3.557-2.736-6.166-6.118-3.778-8.458,2.385-2.29,7.154,1.992,7.161,1.958C1021.465,1163.126,1021.4,1171.8,1017.865,1169.1Zm27.312-17.439c-3.333,4.175-7.245,4.507-6.825,1.942.421-2.582,6.433-6.694,6.495-6.694C1044.858,1146.931,1048.544,1147.541,1045.177,1151.663Zm-8.152-14c-.02.012,1.048,5.49-1.861,5.9-2.918.436-5.434-1.7-3.879-5.823C1032.861,1133.668,1037.025,1137.686,1037.025,1137.66Zm-1.245-41.173c0,.017,5.072,2.09,1.054,4.216C1032.8,1102.9,1035.753,1096.48,1035.78,1096.487Z" transform="translate(-989.288 -1066.528)" fill="#20c9ac"/>
      <rect id="Rectangle_306" data-name="Rectangle 306" width="70.219" height="64.251" transform="translate(52.229 203.011)" fill="#5367eb"/>
      <rect id="Rectangle_307" data-name="Rectangle 307" width="85.688" height="6.216" transform="translate(43.118 195.869)" fill="#20c9ac"/>
      <rect id="Rectangle_308" data-name="Rectangle 308" width="79.87" height="5.733" transform="translate(46.16 202.085)" fill="#23218c"/>
    </g>
    <g id="Groupe_1892" data-name="Groupe 1892" transform="translate(719.238 1136.488)">
      <g id="Groupe_1884" data-name="Groupe 1884" transform="translate(58.843 1.052)">
        <path id="Tracé_3500" data-name="Tracé 3500" d="M839.556,1344.595l-11.919-178.1-6.9.706,11.872,177.394Z" transform="translate(-820.734 -1166.495)" fill="#4e3d5b"/>
      </g>
      <g id="Groupe_1885" data-name="Groupe 1885" transform="translate(63.25 1.052)">
        <path id="Tracé_3501" data-name="Tracé 3501" d="M844.612,1344.595l-11.92-178.1-6.9.706,11.872,177.394Z" transform="translate(-825.791 -1166.495)" fill="#c29533"/>
      </g>
      <g id="Groupe_1886" data-name="Groupe 1886" transform="translate(37.415 1.052)">
        <path id="Tracé_3502" data-name="Tracé 3502" d="M803.1,1344.595,814.97,1167.2l-6.9-.706-11.919,178.1Z" transform="translate(-796.148 -1166.495)" fill="#c29533"/>
      </g>
      <g id="Groupe_1887" data-name="Groupe 1887" transform="translate(33.007 1.052)">
        <path id="Tracé_3503" data-name="Tracé 3503" d="M798.041,1344.595,809.914,1167.2l-6.9-.706-11.919,178.1Z" transform="translate(-791.092 -1166.495)" fill="#4e3d5b"/>
      </g>
      <g id="Groupe_1888" data-name="Groupe 1888" transform="translate(24.195 1.052)">
        <path id="Tracé_3504" data-name="Tracé 3504" d="M798.606,1344.595l-11.162-178.1-6.464.706L792.1,1344.595Z" transform="translate(-780.981 -1166.495)" fill="#4e3d5b"/>
      </g>
      <g id="Groupe_1889" data-name="Groupe 1889" transform="translate(28.322 1.052)">
        <path id="Tracé_3505" data-name="Tracé 3505" d="M803.342,1344.595l-11.163-178.1-6.464.706,11.119,177.394Z" transform="translate(-785.716 -1166.495)" fill="#c29533"/>
      </g>
      <g id="Groupe_1890" data-name="Groupe 1890" transform="translate(4.127 1.052)">
        <path id="Tracé_3506" data-name="Tracé 3506" d="M764.464,1344.595,775.583,1167.2l-6.464-.706-11.163,178.1Z" transform="translate(-757.956 -1166.495)" fill="#c29533"/>
      </g>
      <g id="Groupe_1891" data-name="Groupe 1891" transform="translate(0 1.052)">
        <path id="Tracé_3507" data-name="Tracé 3507" d="M759.729,1344.595,770.846,1167.2l-6.464-.706-11.162,178.1Z" transform="translate(-753.221 -1166.495)" fill="#4e3d5b"/>
      </g>
      <rect id="Rectangle_309" data-name="Rectangle 309" width="71.049" height="6.854" transform="translate(5.021)" fill="#ffaf00"/>
      <rect id="Rectangle_310" data-name="Rectangle 310" width="72.644" height="7.427" transform="translate(5.021 2.702)" fill="#4e3d5b"/>
      <rect id="Rectangle_311" data-name="Rectangle 311" width="29.51" height="6.21" transform="translate(5.021 114.478)" fill="#4e3d5b"/>
      <rect id="Rectangle_312" data-name="Rectangle 312" width="36.824" height="6.21" transform="translate(37.415 114.478)" fill="#c29533"/>
    </g>
    <g id="Groupe_1896" data-name="Groupe 1896" transform="translate(732.236 941.034)">
      <path id="Tracé_3508" data-name="Tracé 3508" d="M847.262,1053.057s8.133,2.274,8.365,3.17-7.9-1.285-8.763-1.285S847.262,1053.057,847.262,1053.057Z" transform="translate(-778.207 -955.421)" fill="#fd5e5a"/>
      <path id="Tracé_3509" data-name="Tracé 3509" d="M819.349,1134.126s68.087,49.856,65.47,60.651c-4.232,17.455-50.184,70.085-49.027,74.052s16.933,11.123,14.91,13.145-33.652-6.21-33.652-6.21,10.379-11.961,12.759-17.779,24.266-53.158,31.572-57.39L803.846,1156Z" transform="translate(-772.72 -965.832)" fill="#fd5e5a"/>
      <path id="Tracé_3510" data-name="Tracé 3510" d="M778.656,1169.7l41.8,73.125s-10.158,0-25.652,82.875c-.542,2.9-4.6,14.906-5.307,17.959a133.334,133.334,0,0,0,18.822,1.313h15.33s-20.235-9.2-20.235-14.755,37.161-80.119,38.484-87.524-31.621-83.475-31.621-83.475Z" transform="translate(-769.485 -969.054)" fill="#fc7575"/>
      <path id="Tracé_3511" data-name="Tracé 3511" d="M875.668,1077.938c-2.027-2.028-2.324-1.231-6.555-1.231s-27.075,2.554-32.365.7c-4.455-1.56-4.961-32.25-7.436-41.348-3.561-13.1-18.018-17.5-18.018-17.5s10.3,68.548,15.24,71,33.676-3.865,38.788-3.865,8.993,4.584,11.637,3.768S877.7,1079.966,875.668,1077.938Z" transform="translate(-773.677 -950.99)" fill="#fd5e5a"/>
      <path id="Tracé_3512" data-name="Tracé 3512" d="M814.73,1117.884c-3.611-9.679-9.738-17.208,1.538-43.387,12.727-29.545,6.763-34.764.4-44.848-5.534-8.763-9.083-10.836-9.083-10.836s-16.285-4.023-22.94-3.568c-1.716.118,5.789,41.827.9,60.9-5.136,20.028-20.48,36.805-16.856,55.2l6.868,60.6c42.628,5.567,87.1-41.131,87.1-41.131Z" transform="translate(-768.134 -950.56)" fill="#79dfcd"/>
      <path id="Tracé_3513" data-name="Tracé 3513" d="M843.574,1056.694s6.359,1.491,6.359,2.62-7.093-.5-7.093-.5Z" transform="translate(-777.728 -955.888)" fill="#fd5e5a"/>
      <path id="Tracé_3514" data-name="Tracé 3514" d="M849.131,1048.771c-1.506-.489-5.488-.49-9.094-.367a17.12,17.12,0,0,0-1.878-.72c3.082-.743,6.613-1.744,7.466-2.6,1.294-1.293-7.808,1.124-11.193,2.054-4.317.506-6.583,7.7-9.531,10.653-3.057,3.057-25.888,14.933-31.061,16.041-2.633.565-4.655-3.067-6.085-6.961-2.073-8.035.98-22.595.373-26.75-.945-6.471-3.256-24.889-3.256-24.889s-8.521-1.475-12.619,6.641-3.6,64.228,8.269,71.67c10.832,6.793,38.51-21.32,44.134-26.946a121.026,121.026,0,0,0,10.865-12.939s4.195-1.884,5.834-2.9c.737-.456,3.059-.481,3.913-.626C848.24,1049.637,850.23,1049.128,849.131,1048.771Z" transform="translate(-768.365 -950.55)" fill="#fc7575"/>
      <path id="Tracé_3515" data-name="Tracé 3515" d="M784.753,1102.23s.409,2.935,1.223,2.935,5.381-1.222,5.381-2.446S784.753,1100.927,784.753,1102.23Z" transform="translate(-770.268 -961.64)" fill="#fd5e5a"/>
      <g id="Groupe_1893" data-name="Groupe 1893" transform="translate(8.721)">
        <path id="Tracé_3516" data-name="Tracé 3516" d="M797.45,960.707s-14.54,13.613-11.487,16.666,1.324,10.759,2.1,13.026c2.155,6.28,8.674,6.527,14.662,5.29,5.691-1.176,8.61.056,8.61.056S813,997.5,817.865,997.5s11.09-5.15,9.275-9.79c0,0,2.757-.068,5.232-4.59s-2.8-9.947-2.8-9.947,5.36-4.555,1.237-8.679c0,0,4.46-6.261-1.98-12.7-5.323-5.322-13.447-.248-17.428-2.063S797.45,960.707,797.45,960.707Z" transform="translate(-779.09 -942.093)" fill="#26125e"/>
        <path id="Tracé_3517" data-name="Tracé 3517" d="M815.177,996.812s-4.36,4.272-5.045,9.989a34.908,34.908,0,0,0-.051,9.448c.511,2.527-.544,4.365-3.074,4.857a8.28,8.28,0,0,1-4.981-.814c-3.283-1.465-9.433-5.13-7.341-7.941,3.131-4.21,9.16-26.817,9.16-26.817Z" transform="translate(-780.21 -946.749)" fill="#fc7575"/>
        <path id="Tracé_3518" data-name="Tracé 3518" d="M816.408,997.084l-8.209-9.262s-2.4-1.136-4.353,2.433c0,5.425,4.874,11.466,8.36,13.455A20.264,20.264,0,0,1,816.408,997.084Z" transform="translate(-781.441 -947.02)" fill="#fd5e5a"/>
        <path id="Tracé_3519" data-name="Tracé 3519" d="M817.7,957.234a11.256,11.256,0,0,1,5.125,5.62c1.642,4.011-.035,9.336.8,12.845s-1.734,21.764-10.781,19.735-11.4-14.9-12.072-17.755.939-13.652,5.219-17.1S817.7,957.234,817.7,957.234Z" transform="translate(-781.027 -943.114)" fill="#fc7575"/>
        <path id="Tracé_3520" data-name="Tracé 3520" d="M800.9,976.515c-.292-1.065-.385-3.914-3.2-2.578-3.386,1.611.519,8.951,2.149,8.681C803.334,982.04,801.312,978.008,800.9,976.515Z" transform="translate(-780.48 -945.214)" fill="#fc7575"/>
        <path id="Tracé_3521" data-name="Tracé 3521" d="M800.72,976.971c-.283-.42-1.455-1.605-1.918-.654s.944,5.859,2.115,4.687S801.281,977.81,800.72,976.971Z" transform="translate(-780.781 -945.519)" fill="#fd5e5a"/>
        <path id="Tracé_3522" data-name="Tracé 3522" d="M819.786,978.01a58.707,58.707,0,0,0,1.968,7.006,4.321,4.321,0,0,1-2.466.819,4.044,4.044,0,0,0,2.912-.662A60.735,60.735,0,0,0,819.786,978.01Z" transform="translate(-783.424 -945.782)" fill="#510b5e"/>
        <path id="Tracé_3523" data-name="Tracé 3523" d="M813.483,974.463a8.5,8.5,0,0,0-3.876-.941c-2,.081-4.349,2.766-4.349,2.766s2.7-2.163,4.042-2.166a7.629,7.629,0,0,1,2.758.658Z" transform="translate(-781.622 -945.206)" fill="#510b5e"/>
        <path id="Tracé_3524" data-name="Tracé 3524" d="M820.125,973.5a7.052,7.052,0,0,1,2.882-2.008c1.621-.494,4.143,1.408,4.143,1.408s-2.68-1.3-3.753-.92a6.3,6.3,0,0,0-2.053,1.417Z" transform="translate(-783.532 -944.935)" fill="#510b5e"/>
        <path id="Tracé_3525" data-name="Tracé 3525" d="M815.137,991.529c4.476.9,6.033.547,7.437,0C820.749,993.53,817,993.127,815.137,991.529Z" transform="translate(-782.891 -947.519)" fill="#510b5e"/>
        <path id="Tracé_3526" data-name="Tracé 3526" d="M813.444,977.944a1.139,1.139,0,1,1-1.018-1.374A1.213,1.213,0,0,1,813.444,977.944Z" transform="translate(-782.384 -945.597)" fill="#510b5e"/>
        <path id="Tracé_3527" data-name="Tracé 3527" d="M808,978.926c3.844-4.61,5.73-1.6,7.135-1.483-1.124.154-2.5-.963-3.718-.546A18.3,18.3,0,0,0,808,978.926Z" transform="translate(-781.974 -945.572)" fill="#42004a"/>
        <path id="Tracé_3528" data-name="Tracé 3528" d="M824.366,976.808c-.05.7-.485,1.238-.974,1.188s-.843-.663-.791-1.367.485-1.238.974-1.19S824.417,976.1,824.366,976.808Z" transform="translate(-783.849 -945.452)" fill="#510b5e"/>
        <path id="Tracé_3529" data-name="Tracé 3529" d="M820.606,977.544c3.009-4.306,4.776-1.248,5.975-1.059-.945.091-2.179-1.082-3.186-.74A12.991,12.991,0,0,0,820.606,977.544Z" transform="translate(-783.594 -945.429)" fill="#42004a"/>
        <path id="Tracé_3530" data-name="Tracé 3530" d="M813.817,985.456c-.1,1.212-1.486,2.083-3.09,1.948s-2.822-1.228-2.719-2.44,1.486-2.084,3.091-1.948S813.919,984.244,813.817,985.456Z" transform="translate(-781.975 -946.424)" fill="#fd5e5a"/>
        <path id="Tracé_3531" data-name="Tracé 3531" d="M826.715,980.549a3.607,3.607,0,0,0-1.422.413c-1.422.756-2.112,2.239-1.542,3.312a2.285,2.285,0,0,0,2.507.957A29.774,29.774,0,0,0,826.715,980.549Z" transform="translate(-783.972 -946.109)" fill="#fd5e5a"/>
        <path id="Tracé_3532" data-name="Tracé 3532" d="M818.14,957.871s-5.946,7.552-14.479,4.086c0,0-2.594,16.336-8.534,14.109,0,0,4.6,3.531,0,8.978-7.144,8.466-24.779-2.491-13.087-14.183,0,0-4.972-5.358-1.09-14.349,2.708-6.27,10.464-4.207,10.464-4.207s-2.4-8.326,6.321-10.644c8.153-2.167,9.995,1.979,9.995,1.979s3.585-3.2,8.947.085C825.537,949.156,818.14,957.871,818.14,957.871Z" transform="translate(-778.14 -941.034)" fill="#4620ad"/>
      </g>
      <g id="Groupe_1894" data-name="Groupe 1894" transform="translate(75.489 95.703)">
        <path id="Tracé_3533" data-name="Tracé 3533" d="M855.491,1098.512c-.411,0-.744-.533-.744-1.191s.333-1.192.744-1.192c29.224,0,41.457-44.124,41.579-44.57.16-.606.6-.885.978-.621S885.681,1098.512,855.491,1098.512Z" transform="translate(-854.747 -1050.839)" fill="#464a7f"/>
      </g>
      <path id="Tracé_3534" data-name="Tracé 3534" d="M910.025,1043.605a6.479,6.479,0,1,1-6.479-6.479A6.48,6.48,0,0,1,910.025,1043.605Z" transform="translate(-784.692 -953.374)" fill="#514082"/>
      <g id="Groupe_1895" data-name="Groupe 1895" transform="translate(112.726 84.743)">
        <path id="Tracé_3535" data-name="Tracé 3535" d="M906.743,1047.739c.9-.292,1.807-.587,2.692-.942-1.056.157-2.139.4-3.254.643.111.345.086.321.613,1.877-2.1-.854-2.783-1.056-2.932-1.112-.059.12-.462.857-1.006,2.113.4-.549.785-1.113,1.151-1.684,1.342.655,2.688,1.2,3.658,1.609C907.524,1049.849,907.256,1049.057,906.743,1047.739Z" transform="translate(-898.162 -1039.36)" fill="#5e4b96"/>
        <path id="Tracé_3536" data-name="Tracé 3536" d="M905.772,1041.924c.221-.039.847-.13,2.721-.5-.949,2.02-.987,2.185-1.075,2.385.6.5,1.363,1.162,2.348,1.894-.6-.687-1.24-1.339-1.882-1.984.589-1.083,1.124-2.194,1.524-3-.361.073-1.4.261-3.274.693-.211-1.052-.422-2.1-.7-3.144C905.494,1039.436,905.631,1040.665,905.772,1041.924Z" transform="translate(-898.493 -1038.264)" fill="#5e4b96"/>
        <path id="Tracé_3537" data-name="Tracé 3537" d="M901.866,1045.7l-2.371.324c.106-.2,1.21-2.219,1.15-2.11l-1.371-.724,1.293-.141c0-.176-.029-3.236-.029-3.082l1.863,1.422c.069-.107.759-1.119,2.012-3.127q-1.055,1.332-2.072,2.691l-2.243-1.908c0,.352-.034,3.659-.033,3.551l-2.588.253,2.508,1.271-1.279,2.469,2.91-.553c.171,1.063.35,2.126.548,3.185C902.057,1047.68,901.946,1046.582,901.866,1045.7Z" transform="translate(-897.47 -1038.264)" fill="#5e4b96"/>
      </g>
      <path id="Tracé_3538" data-name="Tracé 3538" d="M893.214,1070.353s3.322-11.37-.909-10.741-11.637,7.9-11.637,7.9l11.107-4.364Z" transform="translate(-782.587 -956.259)" fill="#514082"/>
      <path id="Tracé_3539" data-name="Tracé 3539" d="M890.7,1081.581l7.536-5.311,1.84,9.786-3.472-6.215Z" transform="translate(-783.874 -958.402)" fill="#514082"/>
      <path id="Tracé_3540" data-name="Tracé 3540" d="M878.29,1085.178s5.243,5.816,6.74,5.816c.782,0-.526-2.089-.588-3.611a13.472,13.472,0,0,0-.288-2.209C883.977,1083.768,878.29,1085.178,878.29,1085.178Z" transform="translate(-782.281 -959.465)" fill="#fc7575"/>
      <path id="Tracé_3541" data-name="Tracé 3541" d="M889.237,1093.251c-1.83-1.8-9.785-3.66-10.138-2.028s7.981,4.144,9.5,4.144S889.7,1093.7,889.237,1093.251Z" transform="translate(-782.383 -960.241)" fill="#fc7575"/>
      <path id="Tracé_3542" data-name="Tracé 3542" d="M890.391,1090.9c-1.83-1.8-9.786-3.658-10.138-2.027s7.98,4.143,9.5,4.143S890.852,1091.357,890.391,1090.9Z" transform="translate(-782.532 -959.94)" fill="#fc7575"/>
      <path id="Tracé_3543" data-name="Tracé 3543" d="M888.226,1095.173c-1.83-1.8-9.786-3.66-10.138-2.029s7.98,4.144,9.5,4.144S888.687,1095.627,888.226,1095.173Z" transform="translate(-782.254 -960.488)" fill="#fc7575"/>
    </g>
    <g id="Groupe_1897" data-name="Groupe 1897" transform="translate(539.583 1115.417)">
      <path id="Tracé_3544" data-name="Tracé 3544" d="M634.292,1239.245s-6.892-27.591-23.515-35.081-17.029,13.406-6.081,29.108,39.529,33.541,39.529,33.541Z" transform="translate(-553.536 -1149.008)" fill="#902372"/>
      <path id="Tracé_3545" data-name="Tracé 3545" d="M646.1,1270.026a1.2,1.2,0,0,0,.675-.207,1.216,1.216,0,0,0,.336-1.685l-33.043-49.463a1.216,1.216,0,0,0-2.023,1.351l33.043,49.464A1.217,1.217,0,0,0,646.1,1270.026Z" transform="translate(-555.409 -1151.003)" fill="#11404e"/>
      <path id="Tracé_3546" data-name="Tracé 3546" d="M713.072,1283.424s6.385,10.643-3.65,20.677-41.961,2.736-41.961,2.736,3.473-15.687,17.028-21.892S709.119,1274,713.072,1283.424Z" transform="translate(-562.552 -1158.705)" fill="#902372"/>
      <path id="Tracé_3547" data-name="Tracé 3547" d="M682.632,1201.578c2.088-9.9-.175-18.875-7.071-23.8,8.253-16.274,5.874-34.075-8.446-36.323-14.49-2.275-32.6,6.571-28.075,29.569A65.578,65.578,0,0,0,640.8,1178c-9.825,5.084-16.3,14.8-12.822,29.808q.113.483.229.956c-5.785,7.258-8.49,17.436-5.6,30.8,7.446,34.493,27.364,40.558,27.364,40.558s18.057-4.928,32.2-29.565C692.87,1231.922,693.347,1211.769,682.632,1201.578Z" transform="translate(-556.642 -1141.112)" fill="url(#linear-gradient)"/>
      <path id="Tracé_3548" data-name="Tracé 3548" d="M637.427,1305.155s-4.211-31.917-7.607-35.313c-3.525-3.524-4.563,1.5-4.563,1.5s-2.856-24.574-9.511-27.931-10.275,4.141-10.275,4.141,2.382-26.533-17.932-28.594c-9.748-.988-11.956,10.586-11.956,10.586s-12.93-16.249-25.04-2.317c-10.138,11.663,5.3,22.583,5.3,22.583s-11.853,7.608-3.174,18.408,23.336,7.819,23.336,7.819-8.311,8.376-.633,12.251,26.392.163,26.392.163-9.842,4.485-2.359,8.26S637.427,1305.155,637.427,1305.155Z" transform="translate(-547.094 -1151.102)" fill="url(#linear-gradient-2)"/>
      <path id="Tracé_3549" data-name="Tracé 3549" d="M663.058,1178.5a1.216,1.216,0,0,0-1.3,1.121l-10.338,136.224a1.217,1.217,0,0,0,1.121,1.3c.03,0,.062,0,.093,0a1.215,1.215,0,0,0,1.211-1.124l10.339-136.224A1.216,1.216,0,0,0,663.058,1178.5Z" transform="translate(-560.491 -1145.914)" fill="#11404e"/>
      <path id="Tracé_3550" data-name="Tracé 3550" d="M691.866,1303.873l-6.413-2.181c2.562-.928,4.852-1.7,6.394-2.2a1.216,1.216,0,1,0-.743-2.316c-.844.27-20.7,6.68-25.265,11.244-4.727,4.728-4.329,18.558-4.309,19.145a1.215,1.215,0,0,0,1.214,1.175h.043a1.214,1.214,0,0,0,1.174-1.255c-.12-3.7.29-14.038,3.6-17.344,2.066-2.065,8.369-4.83,14.294-7.106l9.233,3.14a1.185,1.185,0,0,0,.391.065,1.216,1.216,0,0,0,.391-2.367Z" transform="translate(-561.788 -1161.148)" fill="#11404e"/>
      <path id="Tracé_3551" data-name="Tracé 3551" d="M641.174,1307.256c-7.539-12.6-26.809-29.935-42.777-43.1l.36-22.787a1.216,1.216,0,1,0-2.432-.038L596,1262.189c-11.6-9.459-20.954-16.365-21.857-17.028a1.217,1.217,0,1,0-1.443,1.959c.184.137,6.691,4.938,15.644,12.069H569.364a1.216,1.216,0,1,0,0,2.432h22.012c6.206,5,13.275,10.9,20.139,17.037l-14.561,2.647a1.216,1.216,0,0,0,.216,2.413,1.138,1.138,0,0,0,.218-.019l16.408-2.983c10.677,9.707,20.519,19.818,25.29,27.789a1.216,1.216,0,1,0,2.088-1.249Z" transform="translate(-549.798 -1153.829)" fill="#11404e"/>
      <path id="Tracé_3552" data-name="Tracé 3552" d="M660.572,1288.745s-5.975-34.013-1.171-34.013a6.025,6.025,0,0,1,5.974,4.01s-2.838-19.46,2.433-24.731,8.92-4.055,8.92-4.055-10.542-20.068,8.107-28.38c8.95-3.987,14.646,1.926,14.646,1.926s7.2-19.478,23.059-10.033c13.279,7.905,2.027,23.108,2.027,23.108s8.92,7.3,4.055,20.272-15,10.947-15,10.947,6.081,8.109,0,14.19-19.365,3.243-19.365,3.243,5.927,1.777,0,7.7S660.572,1288.745,660.572,1288.745Z" transform="translate(-561.277 -1147.505)" fill="url(#linear-gradient-3)"/>
      <path id="Tracé_3553" data-name="Tracé 3553" d="M709.61,1240.3l-15.468,4.932c9.086-10.964,16.558-19.377,16.746-19.587a1.216,1.216,0,1,0-1.817-1.617c-.927,1.04-11.817,13.3-23.219,27.479l1.419-16.022a1.216,1.216,0,1,0-2.422-.214l-1.743,19.678c-11.581,14.626-22.908,30.453-24.129,37.8-2.471,14.854-4.51,31.1-4.531,31.267a1.218,1.218,0,0,0,1.056,1.358,1.5,1.5,0,0,0,.152.01,1.218,1.218,0,0,0,1.206-1.066c.02-.161,2.053-16.364,4.514-31.169,1.354-8.139,16.668-28.275,29.912-44.451l19.063-6.078a1.217,1.217,0,0,0-.739-2.319Z" transform="translate(-560.88 -1151.709)" fill="#11404e"/>
      <rect id="Rectangle_313" data-name="Rectangle 313" width="39.658" height="36.991" transform="translate(74.851 160.29)" fill="#742051"/>
      <rect id="Rectangle_314" data-name="Rectangle 314" width="57.976" height="3.022" transform="translate(67.204 152.999)" fill="#0c5769"/>
      <rect id="Rectangle_315" data-name="Rectangle 315" width="50.863" height="6.58" transform="translate(70.76 156.021)" fill="#0c7997"/>
    </g>
    <path id="Tracé_3554" data-name="Tracé 3554" d="M813.9,948.69c-3.411.289-7.022.89-7.819,4.43a5.3,5.3,0,0,0,.272,3.091c2.017,4.969,9.056,3.995,9.8,1.181l0-.009a.53.53,0,1,1,1.013.309c-1.316,3.8-9.3,4.281-11.308-1.291-1.131-3.181.472-6.628,4.761-7.413A22.945,22.945,0,0,1,813.9,948.69Z" transform="translate(-40.697 -0.983)" fill="#8256ff"/>
    <path id="Tracé_3555" data-name="Tracé 3555" d="M801.3,957.229c-4.008-.1-8.352.844-9.221,4.755-.973,7.781,5.146,8.947,8.522,5.784,2.058-1.9.52-3.373,1.541-3.593a.53.53,0,0,1,.628.406c1.293,6.009-13.136,9.644-11.076-2.691C792.73,957.865,797.133,956.991,801.3,957.229Z" transform="translate(-38.898 -2.075)" fill="#8256ff"/>
    <path id="Tracé_3556" data-name="Tracé 3556" d="M786.582,970.522c-1.048,3.246-1.7,5.736,1.246,7.83a3.831,3.831,0,0,0,3.881.637c1.359-.482,2.192-1.447,1.57-2.741a.529.529,0,0,1,.954-.458c.723,1.505.053,3.258-2.283,3.956a5.33,5.33,0,0,1-6.515-4.925A12.864,12.864,0,0,1,786.582,970.522Z" transform="translate(-38.12 -3.787)" fill="#8256ff"/>
    <path id="Tracé_3557" data-name="Tracé 3557" d="M784.906,983.264a6.275,6.275,0,0,0,4.439,7.1,4.06,4.06,0,0,0,5.011-5,.529.529,0,0,1,1.021-.276,4.856,4.856,0,0,1-6.166,5.787,6.655,6.655,0,0,1-4.428-5.265A6,6,0,0,1,784.906,983.264Z" transform="translate(-38.028 -5.424)" fill="#8256ff"/>
    <path id="Tracé_3558" data-name="Tracé 3558" d="M940.112,1073.7H913.76c6.324,12.815-6.324,25.63,0,38.444,1.166,1.479,5.815,1.834,13.122,1.834s12.088-.355,13.231-1.834C946.437,1099.326,933.788,1086.511,940.112,1073.7Z" transform="translate(-54.366 -17.037)" fill="#3e1d9b"/>
  </g>
</svg>
